<svg width="18" height="19" viewBox="0 0 18 19" fill="none" xmlns="http://www.w3.org/2000/svg">
<path fill-rule="evenodd" clip-rule="evenodd" d="M9 1C12.3137 1 15 3.68675 15 7.00046C15 8.37835 15 9.68597 15 10.5333C15 13.1333 17 14 17 14L1 14C1 14 3 13.1333 3 10.5333C3 9.68597 3 8.37835 3 7.00046C3 3.68675 5.68629 1 9 1Z" fill="#4F4F4F"/>
<path d="M15 10.5333H14H15ZM17 14V15C17.474 15 17.8829 14.6672 17.9792 14.203C18.0754 13.7389 17.8326 13.2709 17.3976 13.0824L17 14ZM1 14L0.602392 13.0824C0.167444 13.2709 -0.0754147 13.7389 0.0208282 14.203C0.117071 14.6672 0.52597 15 1 15V14ZM14 7.00046C14 7.00315 14 7.00584 14 7.00854C14 7.01123 14 7.01392 14 7.01661C14 7.0193 14 7.02199 14 7.02468C14 7.02737 14 7.03005 14 7.03274C14 7.03543 14 7.03812 14 7.04081C14 7.0435 14 7.04619 14 7.04887C14 7.05156 14 7.05425 14 7.05694C14 7.05962 14 7.06231 14 7.065C14 7.06768 14 7.07037 14 7.07306C14 7.07574 14 7.07843 14 7.08111C14 7.0838 14 7.08649 14 7.08917C14 7.09186 14 7.09454 14 7.09722C14 7.09991 14 7.10259 14 7.10528C14 7.10796 14 7.11064 14 7.11333C14 7.11601 14 7.11869 14 7.12138C14 7.12406 14 7.12674 14 7.12942C14 7.1321 14 7.13478 14 7.13747C14 7.14015 14 7.14283 14 7.14551C14 7.14819 14 7.15087 14 7.15355C14 7.15623 14 7.15891 14 7.16159C14 7.16427 14 7.16695 14 7.16963C14 7.1723 14 7.17498 14 7.17766C14 7.18034 14 7.18302 14 7.18569C14 7.18837 14 7.19105 14 7.19372C14 7.1964 14 7.19908 14 7.20175C14 7.20443 14 7.2071 14 7.20978C14 7.21246 14 7.21513 14 7.2178C14 7.22048 14 7.22315 14 7.22583C14 7.2285 14 7.23117 14 7.23385C14 7.23652 14 7.23919 14 7.24187C14 7.24454 14 7.24721 14 7.24988C14 7.25255 14 7.25523 14 7.2579C14 7.26057 14 7.26324 14 7.26591C14 7.26858 14 7.27125 14 7.27392C14 7.27659 14 7.27926 14 7.28193C14 7.2846 14 7.28726 14 7.28993C14 7.2926 14 7.29527 14 7.29794C14 7.3006 14 7.30327 14 7.30594C14 7.3086 14 7.31127 14 7.31394C14 7.3166 14 7.31927 14 7.32193C14 7.3246 14 7.32726 14 7.32993C14 7.33259 14 7.33525 14 7.33792C14 7.34058 14 7.34324 14 7.34591C14 7.34857 14 7.35123 14 7.35389C14 7.35656 14 7.35922 14 7.36188C14 7.36454 14 7.3672 14 7.36986C14 7.37252 14 7.37518 14 7.37784C14 7.3805 14 7.38316 14 7.38582C14 7.38848 14 7.39114 14 7.39379C14 7.39645 14 7.39911 14 7.40177C14 7.40442 14 7.40708 14 7.40974C14 7.41239 14 7.41505 14 7.4177C14 7.42036 14 7.42301 14 7.42567C14 7.42832 14 7.43098 14 7.43363C14 7.43629 14 7.43894 14 7.44159C14 7.44424 14 7.4469 14 7.44955C14 7.4522 14 7.45485 14 7.4575C14 7.46016 14 7.46281 14 7.46546C14 7.46811 14 7.47076 14 7.47341C14 7.47606 14 7.4787 14 7.48135C14 7.484 14 7.48665 14 7.4893C14 7.49194 14 7.49459 14 7.49724C14 7.49989 14 7.50253 14 7.50518C14 7.50782 14 7.51047 14 7.51311C14 7.51576 14 7.5184 14 7.52105C14 7.52369 14 7.52633 14 7.52898C14 7.53162 14 7.53426 14 7.53691C14 7.53955 14 7.54219 14 7.54483C14 7.54747 14 7.55011 14 7.55275C14 7.55539 14 7.55803 14 7.56067C14 7.56331 14 7.56595 14 7.56859C14 7.57123 14 7.57387 14 7.5765C14 7.57914 14 7.58178 14 7.58442C14 7.58705 14 7.58969 14 7.59232C14 7.59496 14 7.59759 14 7.60023C14 7.60286 14 7.6055 14 7.60813C14 7.61077 14 7.6134 14 7.61603C14 7.61866 14 7.6213 14 7.62393C14 7.62656 14 7.62919 14 7.63182C14 7.63445 14 7.63708 14 7.63971C14 7.64234 14 7.64497 14 7.6476C14 7.65023 14 7.65286 14 7.65548C14 7.65811 14 7.66074 14 7.66337C14 7.66599 14 7.66862 14 7.67124C14 7.67387 14 7.67649 14 7.67912C14 7.68174 14 7.68437 14 7.68699C14 7.68962 14 7.69224 14 7.69486C14 7.69748 14 7.70011 14 7.70273C14 7.70535 14 7.70797 14 7.71059C14 7.71321 14 7.71583 14 7.71845C14 7.72107 14 7.72369 14 7.72631C14 7.72892 14 7.73154 14 7.73416C14 7.73678 14 7.73939 14 7.74201C14 7.74463 14 7.74724 14 7.74986C14 7.75247 14 7.75509 14 7.7577C14 7.76031 14 7.76293 14 7.76554C14 7.76815 14 7.77077 14 7.77338C14 7.77599 14 7.7786 14 7.78121C14 7.78382 14 7.78643 14 7.78904C14 7.79165 14 7.79426 14 7.79687C14 7.79948 14 7.80209 14 7.80469C14 7.8073 14 7.80991 14 7.81251C14 7.81512 14 7.81773 14 7.82033C14 7.82294 14 7.82554 14 7.82815C14 7.83075 14 7.83335 14 7.83596C14 7.83856 14 7.84116 14 7.84376C14 7.84636 14 7.84897 14 7.85157C14 7.85417 14 7.85677 14 7.85937C14 7.86197 14 7.86456 14 7.86716C14 7.86976 14 7.87236 14 7.87496C14 7.87755 14 7.88015 14 7.88274C14 7.88534 14 7.88794 14 7.89053C14 7.89313 14 7.89572 14 7.89831C14 7.90091 14 7.9035 14 7.90609C14 7.90868 14 7.91128 14 7.91387C14 7.91646 14 7.91905 14 7.92164C14 7.92423 14 7.92682 14 7.92941C14 7.93199 14 7.93458 14 7.93717C14 7.93976 14 7.94234 14 7.94493C14 7.94752 14 7.9501 14 7.95269C14 7.95527 14 7.95786 14 7.96044C14 7.96302 14 7.96561 14 7.96819C14 7.97077 14 7.97335 14 7.97594C14 7.97852 14 7.9811 14 7.98368C14 7.98626 14 7.98884 14 7.99142C14 7.994 14 7.99657 14 7.99915C14 8.00173 14 8.0043 14 8.00688C14 8.00946 14 8.01203 14 8.01461C14 8.01718 14 8.01976 14 8.02233C14 8.0249 14 8.02748 14 8.03005C14 8.03262 14 8.03519 14 8.03777C14 8.04034 14 8.04291 14 8.04548C14 8.04805 14 8.05062 14 8.05318C14 8.05575 14 8.05832 14 8.06089C14 8.06345 14 8.06602 14 8.06859C14 8.07115 14 8.07372 14 8.07628C14 8.07885 14 8.08141 14 8.08397C14 8.08654 14 8.0891 14 8.09166C14 8.09422 14 8.09679 14 8.09935C14 8.10191 14 8.10447 14 8.10703C14 8.10958 14 8.11214 14 8.1147C14 8.11726 14 8.11982 14 8.12237C14 8.12493 14 8.12748 14 8.13004C14 8.13259 14 8.13515 14 8.1377C14 8.14026 14 8.14281 14 8.14536C14 8.14791 14 8.15047 14 8.15302C14 8.15557 14 8.15812 14 8.16067C14 8.16322 14 8.16577 14 8.16831C14 8.17086 14 8.17341 14 8.17596C14 8.1785 14 8.18105 14 8.1836C14 8.18614 14 8.18869 14 8.19123C14 8.19377 14 8.19632 14 8.19886C14 8.2014 14 8.20394 14 8.20648C14 8.20903 14 8.21157 14 8.21411C14 8.21665 14 8.21918 14 8.22172C14 8.22426 14 8.2268 14 8.22934C14 8.23187 14 8.23441 14 8.23694C14 8.23948 14 8.24201 14 8.24455C14 8.24708 14 8.24962 14 8.25215C14 8.25468 14 8.25721 14 8.25974C14 8.26227 14 8.2648 14 8.26733C14 8.26986 14 8.27239 14 8.27492C14 8.27745 14 8.27998 14 8.2825C14 8.28503 14 8.28755 14 8.29008C14 8.29261 14 8.29513 14 8.29765C14 8.30018 14 8.3027 14 8.30522C14 8.30774 14 8.31027 14 8.31279C14 8.31531 14 8.31783 14 8.32035C14 8.32286 14 8.32538 14 8.3279C14 8.33042 14 8.33293 14 8.33545C14 8.33797 14 8.34048 14 8.343C14 8.34551 14 8.34803 14 8.35054C14 8.35305 14 8.35556 14 8.35808C14 8.36059 14 8.3631 14 8.36561C14 8.36812 14 8.37063 14 8.37313C14 8.37564 14 8.37815 14 8.38066C14 8.38316 14 8.38567 14 8.38818C14 8.39068 14 8.39319 14 8.39569C14 8.39819 14 8.4007 14 8.4032C14 8.4057 14 8.4082 14 8.4107C14 8.4132 14 8.4157 14 8.4182C14 8.4207 14 8.4232 14 8.4257C14 8.42819 14 8.43069 14 8.43319C14 8.43568 14 8.43818 14 8.44067C14 8.44316 14 8.44566 14 8.44815C14 8.45064 14 8.45314 14 8.45563C14 8.45812 14 8.46061 14 8.4631C14 8.46559 14 8.46807 14 8.47056C14 8.47305 14 8.47554 14 8.47802C14 8.48051 14 8.48299 14 8.48548C14 8.48796 14 8.49045 14 8.49293C14 8.49541 14 8.49789 14 8.50037C14 8.50286 14 8.50534 14 8.50782C14 8.5103 14 8.51277 14 8.51525C14 8.51773 14 8.52021 14 8.52268C14 8.52516 14 8.52763 14 8.53011C14 8.53258 14 8.53506 14 8.53753C14 8.54 14 8.54247 14 8.54495C14 8.54742 14 8.54989 14 8.55236C14 8.55483 14 8.55729 14 8.55976C14 8.56223 14 8.5647 14 8.56716C14 8.56963 14 8.57209 14 8.57456C14 8.57702 14 8.57949 14 8.58195C14 8.58441 14 8.58687 14 8.58933C14 8.5918 14 8.59426 14 8.59671C14 8.59917 14 8.60163 14 8.60409C14 8.60655 14 8.609 14 8.61146C14 8.61391 14 8.61637 14 8.61882C14 8.62128 14 8.62373 14 8.62618C14 8.62864 14 8.63109 14 8.63354C14 8.63599 14 8.63844 14 8.64089C14 8.64333 14 8.64578 14 8.64823C14 8.65068 14 8.65312 14 8.65557C14 8.65801 14 8.66046 14 8.6629C14 8.66534 14 8.66779 14 8.67023C14 8.67267 14 8.67511 14 8.67755C14 8.67999 14 8.68243 14 8.68487C14 8.6873 14 8.68974 14 8.69218C14 8.69461 14 8.69705 14 8.69948C14 8.70192 14 8.70435 14 8.70678C14 8.70922 14 8.71165 14 8.71408C14 8.71651 14 8.71894 14 8.72137C14 8.7238 14 8.72623 14 8.72865C14 8.73108 14 8.73351 14 8.73593C14 8.73836 14 8.74078 14 8.74321C14 8.74563 14 8.74805 14 8.75047C14 8.75289 14 8.75532 14 8.75774C14 8.76016 14 8.76257 14 8.76499C14 8.76741 14 8.76983 14 8.77224C14 8.77466 14 8.77707 14 8.77949C14 8.7819 14 8.78432 14 8.78673C14 8.78914 14 8.79155 14 8.79396C14 8.79637 14 8.79878 14 8.80119C14 8.8036 14 8.80601 14 8.80841C14 8.81082 14 8.81323 14 8.81563C14 8.81804 14 8.82044 14 8.82284C14 8.82524 14 8.82765 14 8.83005C14 8.83245 14 8.83485 14 8.83725C14 8.83965 14 8.84204 14 8.84444C14 8.84684 14 8.84923 14 8.85163C14 8.85402 14 8.85642 14 8.85881C14 8.86121 14 8.8636 14 8.86599C14 8.86838 14 8.87077 14 8.87316C14 8.87555 14 8.87794 14 8.88032C14 8.88271 14 8.8851 14 8.88748C14 8.88987 14 8.89225 14 8.89464C14 8.89702 14 8.8994 14 8.90178C14 8.90417 14 8.90655 14 8.90893C14 8.91131 14 8.91368 14 8.91606C14 8.91844 14 8.92082 14 8.92319C14 8.92557 14 8.92794 14 8.93032C14 8.93269 14 8.93506 14 8.93743C14 8.93981 14 8.94218 14 8.94455C14 8.94691 14 8.94928 14 8.95165C14 8.95402 14 8.95638 14 8.95875C14 8.96112 14 8.96348 14 8.96584C14 8.96821 14 8.97057 14 8.97293C14 8.97529 14 8.97765 14 8.98001C14 8.98237 14 8.98473 14 8.98709C14 8.98945 14 8.9918 14 8.99416C14 8.99651 14 8.99887 14 9.00122C14 9.00357 14 9.00593 14 9.00828C14 9.01063 14 9.01298 14 9.01533C14 9.01768 14 9.02003 14 9.02237C14 9.02472 14 9.02707 14 9.02941C14 9.03176 14 9.0341 14 9.03644C14 9.03879 14 9.04113 14 9.04347C14 9.04581 14 9.04815 14 9.05049C14 9.05283 14 9.05517 14 9.0575C14 9.05984 14 9.06217 14 9.06451C14 9.06684 14 9.06918 14 9.07151C14 9.07384 14 9.07617 14 9.0785C14 9.08083 14 9.08316 14 9.08549C14 9.08782 14 9.09015 14 9.09247C14 9.0948 14 9.09713 14 9.09945C14 9.10177 14 9.1041 14 9.10642C14 9.10874 14 9.11106 14 9.11338C14 9.1157 14 9.11802 14 9.12034C14 9.12265 14 9.12497 14 9.12729C14 9.1296 14 9.13192 14 9.13423C14 9.13654 14 9.13885 14 9.14117C14 9.14348 14 9.14579 14 9.1481C14 9.1504 14 9.15271 14 9.15502C14 9.15733 14 9.15963 14 9.16194C14 9.16424 14 9.16654 14 9.16885C14 9.17115 14 9.17345 14 9.17575C14 9.17805 14 9.18035 14 9.18265C14 9.18495 14 9.18724 14 9.18954C14 9.19183 14 9.19413 14 9.19642C14 9.19872 14 9.20101 14 9.2033C14 9.20559 14 9.20788 14 9.21017C14 9.21246 14 9.21475 14 9.21704C14 9.21932 14 9.22161 14 9.22389C14 9.22618 14 9.22846 14 9.23074C14 9.23303 14 9.23531 14 9.23759C14 9.23987 14 9.24215 14 9.24442C14 9.2467 14 9.24898 14 9.25125C14 9.25353 14 9.2558 14 9.25808C14 9.26035 14 9.26262 14 9.26489C14 9.26717 14 9.26944 14 9.2717C14 9.27397 14 9.27624 14 9.27851C14 9.28077 14 9.28304 14 9.2853C14 9.28757 14 9.28983 14 9.29209C14 9.29436 14 9.29662 14 9.29888C14 9.30114 14 9.30339 14 9.30565C14 9.30791 14 9.31017 14 9.31242C14 9.31468 14 9.31693 14 9.31918C14 9.32143 14 9.32369 14 9.32594C14 9.32819 14 9.33044 14 9.33268C14 9.33493 14 9.33718 14 9.33943C14 9.34167 14 9.34392 14 9.34616C14 9.3484 14 9.35065 14 9.35289C14 9.35513 14 9.35737 14 9.35961C14 9.36184 14 9.36408 14 9.36632C14 9.36856 14 9.37079 14 9.37302C14 9.37526 14 9.37749 14 9.37972C14 9.38195 14 9.38418 14 9.38641C14 9.38864 14 9.39087 14 9.3931C14 9.39532 14 9.39755 14 9.39977C14 9.402 14 9.40422 14 9.40644C14 9.40867 14 9.41089 14 9.41311C14 9.41533 14 9.41755 14 9.41976C14 9.42198 14 9.4242 14 9.42641C14 9.42863 14 9.43084 14 9.43305C14 9.43526 14 9.43748 14 9.43969C14 9.4419 14 9.44411 14 9.44631C14 9.44852 14 9.45073 14 9.45293C14 9.45514 14 9.45734 14 9.45954C14 9.46175 14 9.46395 14 9.46615C14 9.46835 14 9.47055 14 9.47275C14 9.47494 14 9.47714 14 9.47934C14 9.48153 14 9.48372 14 9.48592C14 9.48811 14 9.4903 14 9.49249C14 9.49468 14 9.49687 14 9.49906C14 9.50125 14 9.50344 14 9.50562C14 9.50781 14 9.50999 14 9.51217C14 9.55848 14 9.51818 14 9.56433C14 9.56649 14 9.56865 14 9.57081C14 9.57297 14 9.57513 14 9.57729C14 9.57945 14 9.5816 14 9.58376C14 9.58591 14 9.58807 14 9.59022C14 9.59237 14 9.59452 14 9.59667C14 9.59882 14 9.60097 14 9.60312C14 9.60527 14 9.60742 14 9.60956C14 9.6117 14 9.61385 14 9.61599C14 9.61813 14 9.62027 14 9.62241C14 9.62455 14 9.62669 14 9.62883C14 9.63097 14 9.6331 14 9.63524C14 9.63737 14 9.63951 14 9.64164C14 9.64377 14 9.6459 14 9.64803C14 9.65016 14 9.65229 14 9.65442C14 9.65654 14 9.65867 14 9.66079C14 9.66292 14 9.66504 14 9.66716C14 9.66928 14 9.6714 14 9.67352C14 9.67564 14 9.67776 14 9.67988C14 9.68199 14 9.68411 14 9.68622C14 9.68833 14 9.69045 14 9.69256C14 9.69467 14 9.69678 14 9.69889C14 9.70099 14 9.7031 14 9.70521C14 9.70731 14 9.70942 14 9.71152C14 9.71362 14 9.71573 14 9.71783C14 9.71993 14 9.72203 14 9.72412C14 9.72622 14 9.72832 14 9.73041C14 9.73251 14 9.7346 14 9.73669C14 9.73879 14 9.74088 14 9.74297C14 9.74506 14 9.74714 14 9.74923C14 9.75132 14 9.7534 14 9.75549C14 9.75757 14 9.75966 14 9.76174C14 9.76382 14 9.7659 14 9.76798C14 9.77006 14 9.77213 14 9.77421C14 9.77629 14 9.77836 14 9.78043C14 9.78251 14 9.78458 14 9.78665C14 9.78872 14 9.79079 14 9.79286C14 9.79493 14 9.79699 14 9.79906C14 9.80112 14 9.80319 14 9.80525C14 9.80731 14 9.80937 14 9.81143C14 9.81349 14 9.81555 14 9.81761C14 9.81966 14 9.82172 14 9.82377C14 9.82583 14 9.82788 14 9.82993C14 9.83198 14 9.83403 14 9.83608C14 9.83813 14 9.84018 14 9.84222C14 9.84427 14 9.84631 14 9.84836C14 9.8504 14 9.85244 14 9.85448C14 9.85652 14 9.85856 14 9.8606C14 9.86263 14 9.86467 14 9.8667C14 9.86874 14 9.87077 14 9.8728C14 9.87484 14 9.87687 14 9.87889C14 9.88092 14 9.88295 14 9.88498C14 9.887 14 9.88903 14 9.89105C14 9.89307 14 9.8951 14 9.89712C14 9.89914 14 9.90116 14 9.90317C14 9.90519 14 9.90721 14 9.90922C14 9.91124 14 9.91325 14 9.91526C14 9.91727 14 9.91928 14 9.92129C14 9.9233 14 9.92531 14 9.92732C14 9.92932 14 9.93133 14 9.93333C14 9.93533 14 9.93734 14 9.93933C14 9.94134 14 9.94333 14 9.94533C14 9.94733 14 9.94933 14 9.95132C14 9.95331 14 9.95531 14 9.9573C14 9.95929 14 9.96128 14 9.96327C14 9.96526 14 9.96725 14 9.96923C14 9.97122 14 9.9732 14 9.97519C14 9.97717 14 9.97915 14 9.98113C14 9.98311 14 9.98509 14 9.98707C14 9.98904 14 9.99102 14 9.99299C14 9.99497 14 9.99694 14 9.99891C14 10.0009 14 10.0029 14 10.0048C14 10.0068 14 10.0088 14 10.0107C14 10.0127 14 10.0146 14 10.0166C14 10.0186 14 10.0205 14 10.0225C14 10.0245 14 10.0264 14 10.0284C14 10.0303 14 10.0323 14 10.0342C14 10.0362 14 10.0381 14 10.0401C14 10.042 14 10.044 14 10.0459C14 10.0479 14 10.0498 14 10.0518C14 10.0537 14 10.0557 14 10.0576C14 10.0595 14 10.0615 14 10.0634C14 10.0654 14 10.0673 14 10.0692C14 10.0712 14 10.0731 14 10.075C14 10.077 14 10.0789 14 10.0808C14 10.0828 14 10.0847 14 10.0866C14 10.0885 14 10.0905 14 10.0924C14 10.0943 14 10.0962 14 10.0982C14 10.1001 14 10.102 14 10.1039C14 10.1058 14 10.1077 14 10.1097C14 10.1116 14 10.1135 14 10.1154C14 10.1173 14 10.1192 14 10.1211C14 10.123 14 10.1249 14 10.1268C14 10.1287 14 10.1307 14 10.1326C14 10.1345 14 10.1364 14 10.1383C14 10.1402 14 10.1421 14 10.1439C14 10.1458 14 10.1477 14 10.1496C14 10.1515 14 10.1534 14 10.1553C14 10.1572 14 10.1591 14 10.161C14 10.1629 14 10.1647 14 10.1666C14 10.1685 14 10.1704 14 10.1723C14 10.1742 14 10.176 14 10.1779C14 10.1798 14 10.1817 14 10.1835C14 10.1854 14 10.1873 14 10.1892C14 10.191 14 10.1929 14 10.1948C14 10.1966 14 10.1985 14 10.2004C14 10.2022 14 10.2041 14 10.2059C14 10.2078 14 10.2097 14 10.2115C14 10.2134 14 10.2152 14 10.2171C14 10.219 14 10.2208 14 10.2227C14 10.2245 14 10.2264 14 10.2282C14 10.2301 14 10.2319 14 10.2338C14 10.2356 14 10.2374 14 10.2393C14 10.2411 14 10.243 14 10.2448C14 10.2466 14 10.2485 14 10.2503C14 10.2522 14 10.254 14 10.2558C14 10.2577 14 10.2595 14 10.2613C14 10.2631 14 10.265 14 10.2668C14 10.2686 14 10.2705 14 10.2723C14 10.2741 14 10.2759 14 10.2777C14 10.2796 14 10.2814 14 10.2832C14 10.285 14 10.2868 14 10.2886C14 10.2905 14 10.2923 14 10.2941C14 10.2959 14 10.2977 14 10.2995C14 10.3013 14 10.3031 14 10.3049C14 10.3067 14 10.3085 14 10.3103C14 10.3121 14 10.3139 14 10.3157C14 10.3175 14 10.3193 14 10.3211C14 10.3229 14 10.3247 14 10.3265C14 10.3283 14 10.3301 14 10.3319C14 10.3336 14 10.3354 14 10.3372C14 10.339 14 10.3408 14 10.3426C14 10.3443 14 10.3461 14 10.3479C14 10.3497 14 10.3515 14 10.3532C14 10.355 14 10.3568 14 10.3585C14 10.3603 14 10.3621 14 10.3639C14 10.3656 14 10.3674 14 10.3692C14 10.3709 14 10.3727 14 10.3744C14 10.3762 14 10.378 14 10.3797C14 10.3815 14 10.3832 14 10.385C14 10.3867 14 10.3885 14 10.3902C14 10.392 14 10.3937 14 10.3955C14 10.3972 14 10.399 14 10.4007C14 10.4025 14 10.4042 14 10.406C14 10.4077 14 10.4094 14 10.4112C14 10.4129 14 10.4147 14 10.4164C14 10.4181 14 10.4199 14 10.4216C14 10.4233 14 10.425 14 10.4268C14 10.4285 14 10.4302 14 10.4319C14 10.4337 14 10.4354 14 10.4371C14 10.4388 14 10.4406 14 10.4423C14 10.444 14 10.4457 14 10.4474C14 10.4491 14 10.4508 14 10.4526C14 10.4543 14 10.456 14 10.4577C14 10.4594 14 10.4611 14 10.4628C14 10.4645 14 10.4662 14 10.4679C14 10.4696 14 10.4713 14 10.473C14 10.4747 14 10.4764 14 10.4781C14 10.4798 14 10.4815 14 10.4832C14 10.4848 14 10.4865 14 10.4882C14 10.4899 14 10.4916 14 10.4933C14 10.495 14 10.4966 14 10.4983C14 10.5 14 10.5017 14 10.5034C14 10.505 14 10.5067 14 10.5084C14 10.51 14 10.5117 14 10.5134C14 10.5151 14 10.5167 14 10.5184C14 10.5201 14 10.5217 14 10.5234C14 10.525 14 10.5267 14 10.5284C14 10.53 14 10.5317 14 10.5333H16C16 10.5317 16 10.53 16 10.5284C16 10.5267 16 10.525 16 10.5234C16 10.5217 16 10.5201 16 10.5184C16 10.5167 16 10.5151 16 10.5134C16 10.5117 16 10.51 16 10.5084C16 10.5067 16 10.505 16 10.5034C16 10.5017 16 10.5 16 10.4983C16 10.4966 16 10.495 16 10.4933C16 10.4916 16 10.4899 16 10.4882C16 10.4865 16 10.4848 16 10.4832C16 10.4815 16 10.4798 16 10.4781C16 10.4764 16 10.4747 16 10.473C16 10.4713 16 10.4696 16 10.4679C16 10.4662 16 10.4645 16 10.4628C16 10.4611 16 10.4594 16 10.4577C16 10.456 16 10.4543 16 10.4526C16 10.4508 16 10.4491 16 10.4474C16 10.4457 16 10.444 16 10.4423C16 10.4406 16 10.4388 16 10.4371C16 10.4354 16 10.4337 16 10.4319C16 10.4302 16 10.4285 16 10.4268C16 10.425 16 10.4233 16 10.4216C16 10.4199 16 10.4181 16 10.4164C16 10.4147 16 10.4129 16 10.4112C16 10.4094 16 10.4077 16 10.406C16 10.4042 16 10.4025 16 10.4007C16 10.399 16 10.3972 16 10.3955C16 10.3937 16 10.392 16 10.3902C16 10.3885 16 10.3867 16 10.385C16 10.3832 16 10.3815 16 10.3797C16 10.378 16 10.3762 16 10.3744C16 10.3727 16 10.3709 16 10.3692C16 10.3674 16 10.3656 16 10.3639C16 10.3621 16 10.3603 16 10.3585C16 10.3568 16 10.355 16 10.3532C16 10.3515 16 10.3497 16 10.3479C16 10.3461 16 10.3443 16 10.3426C16 10.3408 16 10.339 16 10.3372C16 10.3354 16 10.3336 16 10.3319C16 10.3301 16 10.3283 16 10.3265C16 10.3247 16 10.3229 16 10.3211C16 10.3193 16 10.3175 16 10.3157C16 10.3139 16 10.3121 16 10.3103C16 10.3085 16 10.3067 16 10.3049C16 10.3031 16 10.3013 16 10.2995C16 10.2977 16 10.2959 16 10.2941C16 10.2923 16 10.2905 16 10.2886C16 10.2868 16 10.285 16 10.2832C16 10.2814 16 10.2796 16 10.2777C16 10.2759 16 10.2741 16 10.2723C16 10.2705 16 10.2686 16 10.2668C16 10.265 16 10.2631 16 10.2613C16 10.2595 16 10.2577 16 10.2558C16 10.254 16 10.2522 16 10.2503C16 10.2485 16 10.2466 16 10.2448C16 10.243 16 10.2411 16 10.2393C16 10.2374 16 10.2356 16 10.2338C16 10.2319 16 10.2301 16 10.2282C16 10.2264 16 10.2245 16 10.2227C16 10.2208 16 10.219 16 10.2171C16 10.2152 16 10.2134 16 10.2115C16 10.2097 16 10.2078 16 10.2059C16 10.2041 16 10.2022 16 10.2004C16 10.1985 16 10.1966 16 10.1948C16 10.1929 16 10.191 16 10.1892C16 10.1873 16 10.1854 16 10.1835C16 10.1817 16 10.1798 16 10.1779C16 10.176 16 10.1742 16 10.1723C16 10.1704 16 10.1685 16 10.1666C16 10.1647 16 10.1629 16 10.161C16 10.1591 16 10.1572 16 10.1553C16 10.1534 16 10.1515 16 10.1496C16 10.1477 16 10.1458 16 10.1439C16 10.1421 16 10.1402 16 10.1383C16 10.1364 16 10.1345 16 10.1326C16 10.1307 16 10.1287 16 10.1268C16 10.1249 16 10.123 16 10.1211C16 10.1192 16 10.1173 16 10.1154C16 10.1135 16 10.1116 16 10.1097C16 10.1077 16 10.1058 16 10.1039C16 10.102 16 10.1001 16 10.0982C16 10.0962 16 10.0943 16 10.0924C16 10.0905 16 10.0885 16 10.0866C16 10.0847 16 10.0828 16 10.0808C16 10.0789 16 10.077 16 10.075C16 10.0731 16 10.0712 16 10.0692C16 10.0673 16 10.0654 16 10.0634C16 10.0615 16 10.0595 16 10.0576C16 10.0557 16 10.0537 16 10.0518C16 10.0498 16 10.0479 16 10.0459C16 10.044 16 10.042 16 10.0401C16 10.0381 16 10.0362 16 10.0342C16 10.0323 16 10.0303 16 10.0284C16 10.0264 16 10.0245 16 10.0225C16 10.0205 16 10.0186 16 10.0166C16 10.0146 16 10.0127 16 10.0107C16 10.0088 16 10.0068 16 10.0048C16 10.0029 16 10.0009 16 9.99891C16 9.99694 16 9.99497 16 9.99299C16 9.99102 16 9.98904 16 9.98707C16 9.98509 16 9.98311 16 9.98113C16 9.97915 16 9.97717 16 9.97519C16 9.9732 16 9.97122 16 9.96923C16 9.96725 16 9.96526 16 9.96327C16 9.96128 16 9.95929 16 9.9573C16 9.95531 16 9.95331 16 9.95132C16 9.94933 16 9.94733 16 9.94533C16 9.94333 16 9.94134 16 9.93933C16 9.93734 16 9.93533 16 9.93333C16 9.93133 16 9.92932 16 9.92732C16 9.92531 16 9.9233 16 9.92129C16 9.91928 16 9.91727 16 9.91526C16 9.91325 16 9.91124 16 9.90922C16 9.90721 16 9.90519 16 9.90317C16 9.90116 16 9.89914 16 9.89712C16 9.8951 16 9.89307 16 9.89105C16 9.88903 16 9.887 16 9.88498C16 9.88295 16 9.88092 16 9.87889C16 9.87687 16 9.87484 16 9.8728C16 9.87077 16 9.86874 16 9.8667C16 9.86467 16 9.86263 16 9.8606C16 9.85856 16 9.85652 16 9.85448C16 9.85244 16 9.8504 16 9.84836C16 9.84631 16 9.84427 16 9.84222C16 9.84018 16 9.83813 16 9.83608C16 9.83403 16 9.83198 16 9.82993C16 9.82788 16 9.82583 16 9.82377C16 9.82172 16 9.81966 16 9.81761C16 9.81555 16 9.81349 16 9.81143C16 9.80937 16 9.80731 16 9.80525C16 9.80319 16 9.80112 16 9.79906C16 9.79699 16 9.79493 16 9.79286C16 9.79079 16 9.78872 16 9.78665C16 9.78458 16 9.78251 16 9.78043C16 9.77836 16 9.77629 16 9.77421C16 9.77213 16 9.77006 16 9.76798C16 9.7659 16 9.76382 16 9.76174C16 9.75966 16 9.75757 16 9.75549C16 9.7534 16 9.75132 16 9.74923C16 9.74714 16 9.74506 16 9.74297C16 9.74088 16 9.73879 16 9.73669C16 9.7346 16 9.73251 16 9.73041C16 9.72832 16 9.72622 16 9.72412C16 9.72203 16 9.71993 16 9.71783C16 9.71573 16 9.71362 16 9.71152C16 9.70942 16 9.70731 16 9.70521C16 9.7031 16 9.70099 16 9.69889C16 9.69678 16 9.69467 16 9.69256C16 9.69045 16 9.68833 16 9.68622C16 9.68411 16 9.68199 16 9.67988C16 9.67776 16 9.67564 16 9.67352C16 9.6714 16 9.66928 16 9.66716C16 9.66504 16 9.66292 16 9.66079C16 9.65867 16 9.65654 16 9.65442C16 9.65229 16 9.65016 16 9.64803C16 9.6459 16 9.64377 16 9.64164C16 9.63951 16 9.63737 16 9.63524C16 9.6331 16 9.63097 16 9.62883C16 9.62669 16 9.62455 16 9.62241C16 9.62027 16 9.61813 16 9.61599C16 9.61599 16 9.40899 16 9.40644C16 9.40422 16 9.402 16 9.39977C16 9.39755 16 9.39532 16 9.3931C16 9.39087 16 9.38864 16 9.38641C16 9.38418 16 9.38195 16 9.37972C16 9.37749 16 9.37526 16 9.37302C16 9.37079 16 9.36856 16 9.36632C16 9.36408 16 9.36184 16 9.35961C16 9.35737 16 9.35513 16 9.35289C16 9.35065 16 9.3484 16 9.34616C16 9.34392 16 9.34167 16 9.33943C16 9.33718 16 9.33493 16 9.33268C16 9.33044 16 9.32819 16 9.32594C16 9.32369 16 9.32143 16 9.31918C16 9.31693 16 9.31468 16 9.31242C16 9.31017 16 9.30791 16 9.30565C16 9.30339 16 9.30114 16 9.29888C16 9.29662 16 9.29436 16 9.29209C16 9.28983 16 9.28757 16 9.2853C16 9.28304 16 9.28077 16 9.27851C16 9.27624 16 9.27397 16 9.2717C16 9.26944 16 9.26717 16 9.26489C16 9.26262 16 9.26035 16 9.25808C16 9.2558 16 9.25353 16 9.25125C16 9.24898 16 9.2467 16 9.24442C16 9.24215 16 9.23987 16 9.23759C16 9.23531 16 9.23303 16 9.23074C16 9.22846 16 9.22618 16 9.22389C16 9.22161 16 9.21932 16 9.21704C16 9.21475 16 9.21246 16 9.21017C16 9.20788 16 9.20559 16 9.2033C16 9.20101 16 9.19872 16 9.19642C16 9.19413 16 9.19183 16 9.18954C16 9.18724 16 9.18495 16 9.18265C16 9.18035 16 9.17805 16 9.17575C16 9.17345 16 9.17115 16 9.16885C16 9.16654 16 9.16424 16 9.16194C16 9.15963 16 9.15733 16 9.15502C16 9.15271 16 9.1504 16 9.1481C16 9.14579 16 9.14348 16 9.14117C16 9.13885 16 9.13654 16 9.13423C16 9.13192 16 9.1296 16 9.12729C16 9.12497 16 9.12265 16 9.12034C16 9.11802 16 9.1157 16 9.11338C16 9.11106 16 9.10874 16 9.10642C16 9.1041 16 9.10177 16 9.09945C16 9.09713 16 9.0948 16 9.09247C16 9.09015 16 9.08782 16 9.08549C16 9.08316 16 9.08083 16 9.0785C16 9.07617 16 9.07384 16 9.07151C16 9.06918 16 9.06684 16 9.06451C16 9.06217 16 9.05984 16 9.0575C16 9.05517 16 9.05283 16 9.05049C16 9.04815 16 9.04581 16 9.04347C16 9.04113 16 9.03879 16 9.03644C16 9.0341 16 9.03176 16 9.02941C16 9.02707 16 9.02472 16 9.02237C16 9.02003 16 9.01768 16 9.01533C16 9.01298 16 9.01063 16 9.00828C16 9.00593 16 9.00357 16 9.00122C16 8.99887 16 8.99651 16 8.99416C16 8.9918 16 8.98945 16 8.98709C16 8.98473 16 8.98237 16 8.98001C16 8.97765 16 8.97529 16 8.97293C16 8.97057 16 8.96821 16 8.96584C16 8.96348 16 8.96112 16 8.95875C16 8.95638 16 8.95402 16 8.95165C16 8.94928 16 8.94691 16 8.94455C16 8.94218 16 8.93981 16 8.93743C16 8.93506 16 8.93269 16 8.93032C16 8.92794 16 8.92557 16 8.92319C16 8.92082 16 8.91844 16 8.91606C16 8.91368 16 8.91131 16 8.90893C16 8.90655 16 8.90417 16 8.90178C16 8.8994 16 8.89702 16 8.89464C16 8.89225 16 8.88987 16 8.88748C16 8.8851 16 8.88271 16 8.88032C16 8.87794 16 8.87555 16 8.87316C16 8.87077 16 8.86838 16 8.86599C16 8.8636 16 8.86121 16 8.85881C16 8.85642 16 8.85402 16 8.85163C16 8.84923 16 8.84684 16 8.84444C16 8.84204 16 8.83965 16 8.83725C16 8.83485 16 8.83245 16 8.83005C16 8.82765 16 8.82524 16 8.82284C16 8.82044 16 8.81804 16 8.81563C16 8.81323 16 8.81082 16 8.80841C16 8.80601 16 8.8036 16 8.80119C16 8.79878 16 8.79637 16 8.79396C16 8.79155 16 8.78914 16 8.78673C16 8.78432 16 8.7819 16 8.77949C16 8.77707 16 8.77466 16 8.77224C16 8.76983 16 8.76741 16 8.76499C16 8.76257 16 8.76016 16 8.75774C16 8.75532 16 8.75289 16 8.75047C16 8.74805 16 8.74563 16 8.74321C16 8.74078 16 8.73836 16 8.73593C16 8.73351 16 8.73108 16 8.72865C16 8.72623 16 8.7238 16 8.72137C16 8.71894 16 8.71651 16 8.71408C16 8.71165 16 8.70922 16 8.70678C16 8.70435 16 8.70192 16 8.69948C16 8.69705 16 8.69461 16 8.69218C16 8.68974 16 8.6873 16 8.68487C16 8.68243 16 8.67999 16 8.67755C16 8.67511 16 8.67267 16 8.67023C16 8.66779 16 8.66534 16 8.6629C16 8.66046 16 8.65801 16 8.65557C16 8.65312 16 8.65068 16 8.64823C16 8.64578 16 8.64333 16 8.64089C16 8.63844 16 8.63599 16 8.63354C16 8.63109 16 8.62864 16 8.62618C16 8.62373 16 8.62128 16 8.61882C16 8.61637 16 8.61391 16 8.61146C16 8.609 16 8.60655 16 8.60409C16 8.60163 16 8.59917 16 8.59671C16 8.59426 16 8.5918 16 8.58933C16 8.58687 16 8.58441 16 8.58195C16 8.57949 16 8.57702 16 8.57456C16 8.57209 16 8.56963 16 8.56716C16 8.5647 16 8.56223 16 8.55976C16 8.55729 16 8.55483 16 8.55236C16 8.54989 16 8.54742 16 8.54495C16 8.54247 16 8.54 16 8.53753C16 8.53506 16 8.53258 16 8.53011C16 8.52763 16 8.52516 16 8.52268C16 8.52021 16 8.51773 16 8.51525C16 8.51277 16 8.5103 16 8.50782C16 8.50534 16 8.50286 16 8.50037C16 8.49789 16 8.49541 16 8.49293C16 8.49045 16 8.48796 16 8.48548C16 8.48299 16 8.48051 16 8.47802C16 8.47554 16 8.47305 16 8.47056C16 8.46807 16 8.46559 16 8.4631C16 8.46061 16 8.45812 16 8.45563C16 8.45314 16 8.45064 16 8.44815C16 8.44566 16 8.44316 16 8.44067C16 8.43818 16 8.43568 16 8.43319C16 8.43069 16 8.42819 16 8.4257C16 8.4232 16 8.4207 16 8.4182C16 8.4157 16 8.4132 16 8.4107C16 8.4082 16 8.4057 16 8.4032C16 8.4007 16 8.39819 16 8.39569C16 8.39319 16 8.39068 16 8.38818C16 8.38567 16 8.38316 16 8.38066C16 8.37815 16 8.37564 16 8.37313C16 8.37063 16 8.36812 16 8.36561C16 8.3631 16 8.36059 16 8.35808C16 8.35556 16 8.35305 16 8.35054C16 8.34803 16 8.34551 16 8.343C16 8.34048 16 8.33797 16 8.33545C16 8.33293 16 8.33042 16 8.3279C16 8.32538 16 8.32286 16 8.32035C16 8.31783 16 8.31531 16 8.31279C16 8.31027 16 8.30774 16 8.30522C16 8.3027 16 8.30018 16 8.29765C16 8.29513 16 8.29261 16 8.29008C16 8.28755 16 8.28503 16 8.2825C16 8.27998 16 8.27745 16 8.27492C16 8.27239 16 8.26986 16 8.26733C16 8.2648 16 8.26227 16 8.25974C16 8.25721 16 8.25468 16 8.25215C16 8.24962 16 8.24708 16 8.24455C16 8.24201 16 8.23948 16 8.23694C16 8.23441 16 8.23187 16 8.22934C16 8.2268 16 8.22426 16 8.22172C16 8.21918 16 8.21665 16 8.21411C16 8.21157 16 8.20903 16 8.20648C16 8.20394 16 8.2014 16 8.19886C16 8.19632 16 8.19377 16 8.19123C16 8.18869 16 8.18614 16 8.1836C16 8.18105 16 8.1785 16 8.17596C16 8.17341 16 8.17086 16 8.16831C16 8.16577 16 8.16322 16 8.16067C16 8.15812 16 8.15557 16 8.15302C16 8.15047 16 8.14791 16 8.14536C16 8.14281 16 8.14026 16 8.1377C16 8.13515 16 8.13259 16 8.13004C16 8.12748 16 8.12493 16 8.12237C16 8.11982 16 8.11726 16 8.1147C16 8.11214 16 8.10958 16 8.10703C16 8.10447 16 8.10191 16 8.09935C16 8.09679 16 8.09422 16 8.09166C16 8.0891 16 8.08654 16 8.08397C16 8.08141 16 8.07885 16 8.07628C16 8.07372 16 8.07115 16 8.06859C16 8.06602 16 8.06345 16 8.06089C16 8.05832 16 8.05575 16 8.05318C16 8.05062 16 8.04805 16 8.04548C16 8.04291 16 8.04034 16 8.03777C16 8.03519 16 8.03262 16 8.03005C16 8.02748 16 8.0249 16 8.02233C16 8.01976 16 8.01718 16 8.01461C16 8.01203 16 8.00946 16 8.00688C16 8.0043 16 8.00173 16 7.99915C16 7.99657 16 7.994 16 7.99142C16 7.98884 16 7.98626 16 7.98368C16 7.9811 16 7.97852 16 7.97594C16 7.97335 16 7.97077 16 7.96819C16 7.96561 16 7.96302 16 7.96044C16 7.95786 16 7.95527 16 7.95269C16 7.9501 16 7.94752 16 7.94493C16 7.94234 16 7.93976 16 7.93717C16 7.93458 16 7.93199 16 7.92941C16 7.92682 16 7.92423 16 7.92164C16 7.91905 16 7.91646 16 7.91387C16 7.91128 16 7.90868 16 7.90609C16 7.9035 16 7.90091 16 7.89831C16 7.89572 16 7.89313 16 7.89053C16 7.88794 16 7.88534 16 7.88274C16 7.88015 16 7.87755 16 7.87496C16 7.87236 16 7.86976 16 7.86716C16 7.86456 16 7.86197 16 7.85937C16 7.85677 16 7.85417 16 7.85157C16 7.84897 16 7.84636 16 7.84376C16 7.84116 16 7.83856 16 7.83596C16 7.83335 16 7.83075 16 7.82815C16 7.82554 16 7.82294 16 7.82033C16 7.81773 16 7.81512 16 7.81251C16 7.80991 16 7.8073 16 7.80469C16 7.80209 16 7.79948 16 7.79687C16 7.79426 16 7.79165 16 7.78904C16 7.78643 16 7.78382 16 7.78121C16 7.7786 16 7.77599 16 7.77338C16 7.77077 16 7.76815 16 7.76554C16 7.76293 16 7.76031 16 7.7577C16 7.75509 16 7.75247 16 7.74986C16 7.74724 16 7.74463 16 7.74201C16 7.73939 16 7.73678 16 7.73416C16 7.73154 16 7.72892 16 7.72631C16 7.72369 16 7.72107 16 7.71845C16 7.71583 16 7.71321 16 7.71059C16 7.70797 16 7.70535 16 7.70273C16 7.70011 16 7.69748 16 7.69486C16 7.69224 16 7.68962 16 7.68699C16 7.68437 16 7.68174 16 7.67912C16 7.67649 16 7.67387 16 7.67124C16 7.66862 16 7.66599 16 7.66337C16 7.66074 16 7.65811 16 7.65548C16 7.65286 16 7.65023 16 7.6476C16 7.64497 16 7.64234 16 7.63971C16 7.63708 16 7.63445 16 7.63182C16 7.62919 16 7.62656 16 7.62393C16 7.6213 16 7.61866 16 7.61603C16 7.6134 16 7.61077 16 7.60813C16 7.6055 16 7.60286 16 7.60023C16 7.59759 16 7.59496 16 7.59232C16 7.58969 16 7.58705 16 7.58442C16 7.58178 16 7.57914 16 7.5765C16 7.57387 16 7.57123 16 7.56859C16 7.56595 16 7.56331 16 7.56067C16 7.55803 16 7.55539 16 7.55275C16 7.55011 16 7.54747 16 7.54483C16 7.54219 16 7.53955 16 7.53691C16 7.53426 16 7.53162 16 7.52898C16 7.52633 16 7.52369 16 7.52105C16 7.5184 16 7.51576 16 7.51311C16 7.51047 16 7.50782 16 7.50518C16 7.50253 16 7.49989 16 7.49724C16 7.49459 16 7.49194 16 7.4893C16 7.48665 16 7.484 16 7.48135C16 7.4787 16 7.47606 16 7.47341C16 7.47076 16 7.46811 16 7.46546C16 7.46281 16 7.46016 16 7.4575C16 7.45485 16 7.4522 16 7.44955C16 7.4469 16 7.44424 16 7.44159C16 7.43894 16 7.43629 16 7.43363C16 7.43098 16 7.42832 16 7.42567C16 7.42301 16 7.42036 16 7.4177C16 7.41505 16 7.41239 16 7.40974C16 7.40708 16 7.40442 16 7.40177C16 7.39911 16 7.39645 16 7.39379C16 7.39114 16 7.38848 16 7.38582C16 7.38316 16 7.3805 16 7.37784C16 7.37518 16 7.37252 16 7.36986C16 7.3672 16 7.36454 16 7.36188C16 7.35922 16 7.35656 16 7.35389C16 7.35123 16 7.34857 16 7.34591C16 7.34324 16 7.34058 16 7.33792C16 7.33525 16 7.33259 16 7.32993C16 7.32726 16 7.3246 16 7.32193C16 7.31927 16 7.3166 16 7.31394C16 7.31127 16 7.3086 16 7.30594C16 7.30327 16 7.3006 16 7.29794C16 7.29527 16 7.2926 16 7.28993C16 7.28726 16 7.2846 16 7.28193C16 7.27926 16 7.27659 16 7.27392C16 7.27125 16 7.26858 16 7.26591C16 7.26324 16 7.26057 16 7.2579C16 7.25523 16 7.25255 16 7.24988C16 7.24721 16 7.24454 16 7.24187C16 7.23919 16 7.23652 16 7.23385C16 7.23117 16 7.2285 16 7.22583C16 7.22315 16 7.22048 16 7.2178C16 7.21513 16 7.21246 16 7.20978C16 7.2071 16 7.20443 16 7.20175C16 7.19908 16 7.1964 16 7.19372C16 7.19105 16 7.18837 16 7.18569C16 7.18302 16 7.18034 16 7.17766C16 7.17498 16 7.1723 16 7.16963C16 7.16695 16 7.16427 16 7.16159C16 7.15891 16 7.15623 16 7.15355C16 7.15087 16 7.14819 16 7.14551C16 7.14283 16 7.14015 16 7.13747C16 7.13478 16 7.1321 16 7.12942C16 7.12674 16 7.12406 16 7.12138C16 7.11869 16 7.11601 16 7.11333C16 7.11064 16 7.10796 16 7.10528C16 7.10259 16 7.09991 16 7.09722C16 7.09454 16 7.09186 16 7.08917C16 7.08649 16 7.0838 16 7.08111C16 7.07843 16 7.07574 16 7.07306C16 7.07037 16 7.06768 16 7.065C16 7.06231 16 7.05962 16 7.05694C16 7.05425 16 7.05156 16 7.04887C16 7.04619 16 7.0435 16 7.04081C16 7.03812 16 7.03543 16 7.03274C16 7.03005 16 7.02737 16 7.02468C16 7.02199 16 7.0193 16 7.01661C16 7.01392 16 7.01123 16 7.00854C16 7.00584 16 7.00315 16 7.00046L14 7.00046ZM14 10.5333C14 12.1188 14.6193 13.2202 15.2652 13.9199C15.582 14.2632 15.8996 14.5045 16.1425 14.6624C16.2645 14.7417 16.3694 14.8011 16.4484 14.8426C16.488 14.8635 16.5213 14.8799 16.5473 14.8923C16.5602 14.8985 16.5714 14.9037 16.5806 14.9079C16.5853 14.91 16.5894 14.9118 16.593 14.9134C16.5948 14.9142 16.5965 14.915 16.5981 14.9157C16.5989 14.916 16.5996 14.9163 16.6003 14.9167C16.6007 14.9168 16.6012 14.917 16.6014 14.9171C16.6019 14.9173 16.6024 14.9176 17 14C17.3976 13.0824 17.3981 13.0827 17.3986 13.0829C17.3987 13.0829 17.3992 13.0831 17.3995 13.0833C17.4001 13.0835 17.4006 13.0838 17.4012 13.084C17.4023 13.0845 17.4032 13.0849 17.4041 13.0853C17.4058 13.086 17.4071 13.0866 17.4079 13.087C17.4095 13.0877 17.4095 13.0877 17.4078 13.0869C17.4045 13.0853 17.3948 13.0807 17.3797 13.0727C17.3494 13.0568 17.298 13.0281 17.2325 12.9855C17.1004 12.8997 16.918 12.7618 16.7348 12.5634C16.3807 12.1798 16 11.5479 16 10.5333H14ZM17 13L1 13V15L17 15V13ZM1 14C1.39761 14.9176 1.39811 14.9173 1.39861 14.9171C1.39879 14.917 1.39931 14.9168 1.39966 14.9167C1.40038 14.9163 1.40113 14.916 1.40191 14.9157C1.40348 14.915 1.40517 14.9142 1.40698 14.9134C1.41061 14.9118 1.41474 14.91 1.41936 14.9079C1.42858 14.9037 1.43976 14.8985 1.45274 14.8923C1.47871 14.8799 1.51201 14.8635 1.5516 14.8426C1.63064 14.8011 1.73551 14.7417 1.85749 14.6624C2.10042 14.5045 2.41796 14.2632 2.7348 13.9199C3.38072 13.2202 4 12.1188 4 10.5333L2 10.5333C2 11.5479 1.61928 12.1798 1.2652 12.5634C1.08204 12.7618 0.899582 12.8997 0.767511 12.9855C0.70199 13.0281 0.650612 13.0568 0.620277 13.0727C0.605175 13.0807 0.59551 13.0853 0.592176 13.0869C0.590517 13.0877 0.59046 13.0877 0.592119 13.087C0.592949 13.0866 0.59421 13.086 0.595917 13.0853C0.596771 13.0849 0.597736 13.0845 0.598814 13.084C0.599354 13.0838 0.59992 13.0835 0.600517 13.0833C0.600815 13.0831 0.601284 13.0829 0.601433 13.0829C0.60191 13.0827 0.602392 13.0824 1 14ZM4 10.5333C4 10.5317 4 10.53 4 10.5284C4 10.5267 4 10.525 4 10.5234C4 10.5217 4 10.5201 4 10.5184C4 10.5167 4 10.5151 4 10.5134C4 10.5117 4 10.51 4 10.5084C4 10.5067 4 10.505 4 10.5034C4 10.5017 4 10.5 4 10.4983C4 10.4966 4 10.495 4 10.4933C4 10.4916 4 10.4899 4 10.4882C4 10.4865 4 10.4848 4 10.4832C4 10.4815 4 10.4798 4 10.4781C4 10.4764 4 10.4747 4 10.473C4 10.4713 4 10.4696 4 10.4679C4 10.4662 4 10.4645 4 10.4628C4 10.4611 4 10.4594 4 10.4577C4 10.456 4 10.4543 4 10.4526C4 10.4508 4 10.4491 4 10.4474C4 10.4457 4 10.444 4 10.4423C4 10.4406 4 10.4388 4 10.4371C4 10.4354 4 10.4337 4 10.4319C4 10.4302 4 10.4285 4 10.4268C4 10.425 4 10.4233 4 10.4216C4 10.4199 4 10.4181 4 10.4164C4 10.4147 4 10.4129 4 10.4112C4 10.4094 4 10.4077 4 10.406C4 10.4042 4 10.4025 4 10.4007C4 10.399 4 10.3972 4 10.3955C4 10.3937 4 10.392 4 10.3902C4 10.3885 4 10.3867 4 10.385C4 10.3832 4 10.3815 4 10.3797C4 10.378 4 10.3762 4 10.3744C4 10.3727 4 10.3709 4 10.3692C4 10.3674 4 10.3656 4 10.3639C4 10.3621 4 10.3603 4 10.3585C4 10.3568 4 10.355 4 10.3532C4 10.3515 4 10.3497 4 10.3479C4 10.3461 4 10.3443 4 10.3426C4 10.3408 4 10.339 4 10.3372C4 10.3354 4 10.3336 4 10.3319C4 10.3301 4 10.3283 4 10.3265C4 10.3247 4 10.3229 4 10.3211C4 10.3193 4 10.3175 4 10.3157C4 10.3139 4 10.3121 4 10.3103C4 10.3085 4 10.3067 4 10.3049C4 10.3031 4 10.3013 4 10.2995C4 10.2977 4 10.2959 4 10.2941C4 10.2923 4 10.2905 4 10.2886C4 10.2868 4 10.285 4 10.2832C4 10.2814 4 10.2796 4 10.2777C4 10.2759 4 10.2741 4 10.2723C4 10.2705 4 10.2686 4 10.2668C4 10.265 4 10.2631 4 10.2613C4 10.2595 4 10.2577 4 10.2558C4 10.254 4 10.2522 4 10.2503C4 10.2485 4 10.2466 4 10.2448C4 10.243 4 10.2411 4 10.2393C4 10.2374 4 10.2356 4 10.2338C4 10.2319 4 10.2301 4 10.2282C4 10.2264 4 10.2245 4 10.2227C4 10.2208 4 10.219 4 10.2171C4 10.2152 4 10.2134 4 10.2115C4 10.2097 4 10.2078 4 10.2059C4 10.2041 4 10.2022 4 10.2004C4 10.1985 4 10.1966 4 10.1948C4 10.1929 4 10.191 4 10.1892C4 10.1873 4 10.1854 4 10.1835C4 10.1817 4 10.1798 4 10.1779C4 10.176 4 10.1742 4 10.1723C4 10.1704 4 10.1685 4 10.1666C4 10.1647 4 10.1629 4 10.161C4 10.1591 4 10.1572 4 10.1553C4 10.1534 4 10.1515 4 10.1496C4 10.1477 4 10.1458 4 10.1439C4 10.1421 4 10.1402 4 10.1383C4 10.1364 4 10.1345 4 10.1326C4 10.1307 4 10.1287 4 10.1268C4 10.1249 4 10.123 4 10.1211C4 10.1192 4 10.1173 4 10.1154C4 10.1135 4 10.1116 4 10.1097C4 10.1077 4 10.1058 4 10.1039C4 10.102 4 10.1001 4 10.0982C4 10.0962 4 10.0943 4 10.0924C4 10.0905 4 10.0885 4 10.0866C4 10.0847 4 10.0828 4 10.0808C4 10.0789 4 10.077 4 10.075C4 10.0731 4 10.0712 4 10.0692C4 10.0673 4 10.0654 4 10.0634C4 10.0615 4 10.0595 4 10.0576C4 10.0557 4 10.0537 4 10.0518C4 10.0498 4 10.0479 4 10.0459C4 10.044 4 10.042 4 10.0401C4 10.0381 4 10.0362 4 10.0342C4 10.0323 4 10.0303 4 10.0284C4 10.0264 4 10.0245 4 10.0225C4 10.0205 4 10.0186 4 10.0166C4 10.0146 4 10.0127 4 10.0107C4 10.0088 4 10.0068 4 10.0048C4 10.0029 4 10.0009 4 9.99891C4 9.99694 4 9.99497 4 9.99299C4 9.99102 4 9.98904 4 9.98707C4 9.98509 4 9.98311 4 9.98113C4 9.97915 4 9.97717 4 9.97519C4 9.9732 4 9.97122 4 9.96923C4 9.96725 4 9.96526 4 9.96327C4 9.96128 4 9.95929 4 9.9573C4 9.95531 4 9.95331 4 9.95132C4 9.94933 4 9.94733 4 9.94533C4 9.94333 4 9.94134 4 9.93933C4 9.93734 4 9.93533 4 9.93333C4 9.93133 4 9.92932 4 9.92732C4 9.92531 4 9.9233 4 9.92129C4 9.91928 4 9.91727 4 9.91526C4 9.91325 4 9.91124 4 9.90922C4 9.90721 4 9.90519 4 9.90317C4 9.90116 4 9.89914 4 9.89712C4 9.8951 4 9.89307 4 9.89105C4 9.88903 4 9.887 4 9.88498C4 9.88295 4 9.88092 4 9.87889C4 9.87687 4 9.87484 4 9.8728C4 9.87077 4 9.86874 4 9.8667C4 9.86467 4 9.86263 4 9.8606C4 9.85856 4 9.85652 4 9.85448C4 9.85244 4 9.8504 4 9.84836C4 9.84631 4 9.84427 4 9.84222C4 9.84018 4 9.83813 4 9.83608C4 9.83403 4 9.83198 4 9.82993C4 9.82788 4 9.82583 4 9.82377C4 9.82172 4 9.81966 4 9.81761C4 9.81555 4 9.81349 4 9.81143C4 9.80937 4 9.80731 4 9.80525C4 9.80319 4 9.80112 4 9.79906C4 9.79699 4 9.79493 4 9.79286C4 9.79079 4 9.78872 4 9.78665C4 9.78458 4 9.78251 4 9.78043C4 9.77836 4 9.77629 4 9.77421C4 9.77213 4 9.77006 4 9.76798C4 9.7659 4 9.76382 4 9.76174C4 9.75966 4 9.75757 4 9.75549C4 9.7534 4 9.75132 4 9.74923C4 9.74714 4 9.74506 4 9.74297C4 9.74088 4 9.73879 4 9.73669C4 9.7346 4 9.73251 4 9.73041C4 9.72832 4 9.72622 4 9.72412C4 9.72203 4 9.71993 4 9.71783C4 9.71573 4 9.71362 4 9.71152C4 9.70942 4 9.70731 4 9.70521C4 9.7031 4 9.70099 4 9.69889C4 9.69678 4 9.69467 4 9.69256C4 9.69045 4 9.68833 4 9.68622C4 9.68411 4 9.68199 4 9.67987C4 9.67776 4 9.67564 4 9.67352C4 9.6714 4 9.66928 4 9.66716C4 9.66504 4 9.66292 4 9.66079C4 9.65867 4 9.65654 4 9.65442C4 9.65229 4 9.65016 4 9.64803C4 9.6459 4 9.64377 4 9.64164C4 9.63951 4 9.63737 4 9.63524C4 9.6331 4 9.63097 4 9.62883C4 9.62669 4 9.62455 4 9.62241C4 9.62027 4 9.61813 4 9.61599C4 9.61385 4 9.6117 4 9.60956C4 9.60742 4 9.60527 4 9.60312C4 9.60097 4 9.59882 4 9.59667C4 9.59452 4 9.59237 4 9.59022C4 9.58807 4 9.58591 4 9.58376C4 9.5816 4 9.57945 4 9.57729C4 9.57513 4 9.57297 4 9.57081C4 9.56865 4 9.56649 4 9.56433C4 9.56216 4 9.56 4 9.55783C4 9.55567 4 9.5535 4 9.55133C4 9.54916 4 9.547 4 9.54483C4 9.54265 4 9.54048 4 9.53831C4 9.53614 4 9.53396 4 9.53179C4 9.52961 4 9.52743 4 9.52526C4 9.52308 4 9.5209 4 9.51872C4 9.51654 4 9.51436 4 9.51217C4 9.50999 4 9.50781 4 9.50562C4 9.50344 4 9.50125 4 9.49906C4 9.49687 4 9.49468 4 9.49249C4 9.4903 4 9.48811 4 9.48592C4 9.48372 4 9.48153 4 9.47933C4 9.47714 4 9.47494 4 9.47274C4 9.47055 4 9.46835 4 9.46615C4 9.46395 4 9.46175 4 9.45954C4 9.45734 4 9.45514 4 9.45293C4 9.45073 4 9.44852 4 9.44631C4 9.44411 4 9.4419 4 9.43969C4 9.43748 4 9.43526 4 9.43305C4 9.43084 4 9.42863 4 9.42641C4 9.4242 4 9.42198 4 9.41976C4 9.41755 4 9.41533 4 9.41311C4 9.41089 4 9.40867 4 9.40644C4 9.40422 4 9.402 4 9.39977C4 9.39755 4 9.39532 4 9.3931C4 9.39087 4 9.38864 4 9.38641C4 9.38418 4 9.38195 4 9.37972C4 9.37749 4 9.37526 4 9.37302C4 9.37079 4 9.36855 4 9.36632C4 9.36408 4 9.36184 4 9.35961C4 9.35737 4 9.35513 4 9.35289C4 9.35065 4 9.3484 4 9.34616C4 9.34392 4 9.34167 4 9.33943C4 9.33718 4 9.33493 4 9.33268C4 9.33044 4 9.32819 4 9.32594C4 9.32369 4 9.32143 4 9.31918C4 9.31693 4 9.31468 4 9.31242C4 9.31017 4 9.30791 4 9.30565C4 9.30339 4 9.30114 4 9.29888C4 9.29662 4 9.29436 4 9.29209C4 9.28983 4 9.28757 4 9.2853C4 9.28304 4 9.28077 4 9.27851C4 9.27624 4 9.27397 4 9.2717C4 9.26944 4 9.26717 4 9.26489C4 9.26262 4 9.26035 4 9.25808C4 9.2558 4 9.25353 4 9.25125C4 9.24898 4 9.2467 4 9.24442C4 9.24215 4 9.23987 4 9.23759C4 9.23531 4 9.23302 4 9.23074C4 9.22846 4 9.22618 4 9.22389C4 9.22161 4 9.21932 4 9.21703C4 9.21475 4 9.21246 4 9.21017C4 9.20788 4 9.20559 4 9.2033C4 9.20101 4 9.19872 4 9.19642C4 9.19413 4 9.19183 4 9.18954C4 9.18724 4 9.18495 4 9.18265C4 9.18035 4 9.17805 4 9.17575C4 9.17345 4 9.17115 4 9.16885C4 9.16654 4 9.16424 4 9.16194C4 9.15963 4 9.15733 4 9.15502C4 9.15271 4 9.1504 4 9.1481C4 9.14579 4 9.14348 4 9.14117C4 9.13885 4 9.13654 4 9.13423C4 9.13192 4 9.1296 4 9.12729C4 9.12497 4 9.12265 4 9.12034C4 9.11802 4 9.1157 4 9.11338C4 9.11106 4 9.10874 4 9.10642C4 9.1041 4 9.10177 4 9.09945C4 9.09713 4 9.0948 4 9.09247C4 9.09015 4 9.08782 4 9.08549C4 9.08316 4 9.08083 4 9.0785C4 9.07617 4 9.07384 4 9.07151C4 9.06918 4 9.06684 4 9.06451C4 9.06217 4 9.05984 4 9.0575C4 9.05517 4 9.05283 4 9.05049C4 9.04815 4 9.04581 4 9.04347C4 9.04113 4 9.03879 4 9.03644C4 9.0341 4 9.03176 4 9.02941C4 9.02707 4 9.02472 4 9.02237C4 9.02003 4 9.01768 4 9.01533C4 9.01298 4 9.01063 4 9.00828C4 9.00593 4 9.00357 4 9.00122C4 8.99887 4 8.99651 4 8.99416C4 8.9918 4 8.98945 4 8.98709C4 8.98473 4 8.98237 4 8.98001C4 8.97765 4 8.97529 4 8.97293C4 8.97057 4 8.96821 4 8.96584C4 8.96348 4 8.96112 4 8.95875C4 8.95638 4 8.95402 4 8.95165C4 8.94928 4 8.94691 4 8.94454C4 8.94218 4 8.9398 4 8.93743C4 8.93506 4 8.93269 4 8.93032C4 8.92794 4 8.92557 4 8.92319C4 8.92082 4 8.91844 4 8.91606C4 8.91368 4 8.91131 4 8.90893C4 8.90655 4 8.90417 4 8.90178C4 8.8994 4 8.89702 4 8.89464C4 8.89225 4 8.88987 4 8.88748C4 8.8851 4 8.88271 4 8.88032C4 8.87794 4 8.87555 4 8.87316C4 8.87077 4 8.86838 4 8.86599C4 8.8636 4 8.86121 4 8.85881C4 8.85642 4 8.85402 4 8.85163C4 8.84923 4 8.84684 4 8.84444C4 8.84204 4 8.83965 4 8.83725C4 8.83485 4 8.83245 4 8.83005C4 8.82765 4 8.82524 4 8.82284C4 8.82044 4 8.81803 4 8.81563C4 8.81323 4 8.81082 4 8.80841C4 8.80601 4 8.8036 4 8.80119C4 8.79878 4 8.79637 4 8.79396C4 8.79155 4 8.78914 4 8.78673C4 8.78432 4 8.7819 4 8.77949C4 8.77707 4 8.77466 4 8.77224C4 8.76983 4 8.76741 4 8.76499C4 8.76257 4 8.76015 4 8.75773C4 8.75532 4 8.75289 4 8.75047C4 8.74805 4 8.74563 4 8.74321C4 8.74078 4 8.73836 4 8.73593C4 8.73351 4 8.73108 4 8.72865C4 8.72623 4 8.7238 4 8.72137C4 8.71894 4 8.71651 4 8.71408C4 8.71165 4 8.70922 4 8.70678C4 8.70435 4 8.70192 4 8.69948C4 8.69705 4 8.69461 4 8.69218C4 8.68974 4 8.6873 4 8.68487C4 8.68243 4 8.67999 4 8.67755C4 8.67511 4 8.67267 4 8.67023C4 8.66779 4 8.66534 4 8.6629C4 8.66046 4 8.65801 4 8.65557C4 8.65312 4 8.65068 4 8.64823C4 8.64578 4 8.64333 4 8.64089C4 8.63844 4 8.63599 4 8.63354C4 8.63109 4 8.62863 4 8.62618C4 8.62373 4 8.62128 4 8.61882C4 8.61637 4 8.61391 4 8.61146C4 8.609 4 8.60655 4 8.60409C4 8.60163 4 8.59917 4 8.59671C4 8.59425 4 8.59179 4 8.58933C4 8.58687 4 8.58441 4 8.58195C4 8.57949 4 8.57702 4 8.57456C4 8.57209 4 8.56963 4 8.56716C4 8.5647 4 8.56223 4 8.55976C4 8.55729 4 8.55483 4 8.55236C4 8.54989 4 8.54742 4 8.54495C4 8.54247 4 8.54 4 8.53753C4 8.53506 4 8.53258 4 8.53011C4 8.52763 4 8.52516 4 8.52268C4 8.52021 4 8.51773 4 8.51525C4 8.51277 4 8.51029 4 8.50782C4 8.50534 4 8.50286 4 8.50037C4 8.49789 4 8.49541 4 8.49293C4 8.49045 4 8.48796 4 8.48548C4 8.48299 4 8.48051 4 8.47802C4 8.47554 4 8.47305 4 8.47056C4 8.46807 4 8.46559 4 8.4631C4 8.46061 4 8.45812 4 8.45563C4 8.45313 4 8.45064 4 8.44815C4 8.44566 4 8.44316 4 8.44067C4 8.43818 4 8.43568 4 8.43319C4 8.43069 4 8.42819 4 8.4257C4 8.4232 4 8.4207 4 8.4182C4 8.4157 4 8.4132 4 8.4107C4 8.4082 4 8.4057 4 8.4032C4 8.4007 4 8.39819 4 8.39569C4 8.39319 4 8.39068 4 8.38818C4 8.38567 4 8.38316 4 8.38066C4 8.37815 4 8.37564 4 8.37313C4 8.37063 4 8.36812 4 8.36561C4 8.3631 4 8.36059 4 8.35807C4 8.35556 4 8.35305 4 8.35054C4 8.34802 4 8.34551 4 8.343C4 8.34048 4 8.33797 4 8.33545C4 8.33293 4 8.33042 4 8.3279C4 8.32538 4 8.32286 4 8.32034C4 8.31783 4 8.31531 4 8.31279C4 8.31026 4 8.30774 4 8.30522C4 8.3027 4 8.30018 4 8.29765C4 8.29513 4 8.2926 4 8.29008C4 8.28755 4 8.28503 4 8.2825C4 8.27998 4 8.27745 4 8.27492C4 8.27239 4 8.26986 4 8.26733C4 8.2648 4 8.26227 4 8.25974C4 8.25721 4 8.25468 4 8.25215C4 8.24961 4 8.24708 4 8.24455C4 8.24201 4 8.23948 4 8.23694C4 8.23441 4 8.23187 4 8.22934C4 8.2268 4 8.22426 4 8.22172C4 8.21918 4 8.21665 4 8.21411C4 8.21157 4 8.20903 4 8.20648C4 8.20394 4 8.2014 4 8.19886C4 8.19632 4 8.19377 4 8.19123C4 8.18868 4 8.18614 4 8.18359C4 8.18105 4 8.1785 4 8.17596C4 8.17341 4 8.17086 4 8.16831C4 8.16577 4 8.16322 4 8.16067C4 8.15812 4 8.15557 4 8.15302C4 8.15047 4 8.14791 4 8.14536C4 8.14281 4 8.14026 4 8.1377C4 8.13515 4 8.13259 4 8.13004C4 8.12748 4 8.12493 4 8.12237C4 8.11982 4 8.11726 4 8.1147C4 8.11214 4 8.10958 4 8.10702C4 8.10447 4 8.10191 4 8.09935C4 8.09678 4 8.09422 4 8.09166C4 8.0891 4 8.08654 4 8.08397C4 8.08141 4 8.07885 4 8.07628C4 8.07372 4 8.07115 4 8.06859C4 8.06602 4 8.06345 4 8.06089C4 8.05832 4 8.05575 4 8.05318C4 8.05061 4 8.04805 4 8.04548C4 8.04291 4 8.04034 4 8.03777C4 8.03519 4 8.03262 4 8.03005C4 8.02748 4 8.0249 4 8.02233C4 8.01976 4 8.01718 4 8.01461C4 8.01203 4 8.00946 4 8.00688C4 8.0043 4 8.00173 4 7.99915C4 7.99657 4 7.99399 4 7.99142C4 7.98884 4 7.98626 4 7.98368C4 7.9811 4 7.97852 4 7.97594C4 7.97335 4 7.97077 4 7.96819C4 7.96561 4 7.96302 4 7.96044C4 7.95786 4 7.95527 4 7.95269C4 7.9501 4 7.94752 4 7.94493C4 7.94234 4 7.93976 4 7.93717C4 7.93458 4 7.93199 4 7.92941C4 7.92682 4 7.92423 4 7.92164C4 7.91905 4 7.91646 4 7.91387C4 7.91127 4 7.90868 4 7.90609C4 7.9035 4 7.90091 4 7.89831C4 7.89572 4 7.89312 4 7.89053C4 7.88794 4 7.88534 4 7.88274C4 7.88015 4 7.87755 4 7.87495C4 7.87236 4 7.86976 4 7.86716C4 7.86456 4 7.86196 4 7.85936C4 7.85677 4 7.85417 4 7.85157C4 7.84896 4 7.84636 4 7.84376C4 7.84116 4 7.83856 4 7.83596C4 7.83335 4 7.83075 4 7.82814C4 7.82554 4 7.82294 4 7.82033C4 7.81773 4 7.81512 4 7.81251C4 7.80991 4 7.8073 4 7.80469C4 7.80209 4 7.79948 4 7.79687C4 7.79426 4 7.79165 4 7.78904C4 7.78643 4 7.78382 4 7.78121C4 7.7786 4 7.77599 4 7.77338C4 7.77077 4 7.76815 4 7.76554C4 7.76293 4 7.76031 4 7.7577C4 7.75509 4 7.75247 4 7.74986C4 7.74724 4 7.74463 4 7.74201C4 7.73939 4 7.73678 4 7.73416C4 7.73154 4 7.72892 4 7.72631C4 7.72369 4 7.72107 4 7.71845C4 7.71583 4 7.71321 4 7.71059C4 7.70797 4 7.70535 4 7.70273C4 7.7001 4 7.69748 4 7.69486C4 7.69224 4 7.68961 4 7.68699C4 7.68437 4 7.68174 4 7.67912C4 7.67649 4 7.67387 4 7.67124C4 7.66862 4 7.66599 4 7.66336C4 7.66074 4 7.65811 4 7.65548C4 7.65286 4 7.65023 4 7.6476C4 7.64497 4 7.64234 4 7.63971C4 7.63708 4 7.63445 4 7.63182C4 7.62919 4 7.62656 4 7.62393C4 7.6213 4 7.61866 4 7.61603C4 7.6134 4 7.61076 4 7.60813C4 7.6055 4 7.60286 4 7.60023C4 7.59759 4 7.59496 4 7.59232C4 7.58969 4 7.58705 4 7.58441C4 7.58178 4 7.57914 4 7.5765C4 7.57387 4 7.57123 4 7.56859C4 7.56595 4 7.56331 4 7.56067C4 7.55803 4 7.55539 4 7.55275C4 7.55011 4 7.54747 4 7.54483C4 7.54219 4 7.53955 4 7.53691C4 7.53426 4 7.53162 4 7.52898C4 7.52633 4 7.52369 4 7.52105C4 7.5184 4 7.51576 4 7.51311C4 7.51047 4 7.50782 4 7.50518C4 7.50253 4 7.49988 4 7.49724C4 7.49459 4 7.49194 4 7.4893C4 7.48665 4 7.484 4 7.48135C4 7.4787 4 7.47605 4 7.4734C4 7.47076 4 7.46811 4 7.46546C4 7.4628 4 7.46015 4 7.4575C4 7.45485 4 7.4522 4 7.44955C4 7.4469 4 7.44424 4 7.44159C4 7.43894 4 7.43628 4 7.43363C4 7.43098 4 7.42832 4 7.42567C4 7.42301 4 7.42036 4 7.4177C4 7.41505 4 7.41239 4 7.40974C4 7.40708 4 7.40442 4 7.40177C4 7.39911 4 7.39645 4 7.39379C4 7.39113 4 7.38848 4 7.38582C4 7.38316 4 7.3805 4 7.37784C4 7.37518 4 7.37252 4 7.36986C4 7.3672 4 7.36454 4 7.36188C4 7.35922 4 7.35656 4 7.35389C4 7.35123 4 7.34857 4 7.34591C4 7.34324 4 7.34058 4 7.33792C4 7.33525 4 7.33259 4 7.32993C4 7.32726 4 7.3246 4 7.32193C4 7.31927 4 7.3166 4 7.31393C4 7.31127 4 7.3086 4 7.30594C4 7.30327 4 7.3006 4 7.29793C4 7.29527 4 7.2926 4 7.28993C4 7.28726 4 7.2846 4 7.28193C4 7.27926 4 7.27659 4 7.27392C4 7.27125 4 7.26858 4 7.26591C4 7.26324 4 7.26057 4 7.2579C4 7.25523 4 7.25255 4 7.24988C4 7.24721 4 7.24454 4 7.24187C4 7.23919 4 7.23652 4 7.23385C4 7.23117 4 7.2285 4 7.22583C4 7.22315 4 7.22048 4 7.2178C4 7.21513 4 7.21245 4 7.20978C4 7.2071 4 7.20443 4 7.20175C4 7.19908 4 7.1964 4 7.19372C4 7.19105 4 7.18837 4 7.18569C4 7.18302 4 7.18034 4 7.17766C4 7.17498 4 7.1723 4 7.16962C4 7.16695 4 7.16427 4 7.16159C4 7.15891 4 7.15623 4 7.15355C4 7.15087 4 7.14819 4 7.14551C4 7.14283 4 7.14015 4 7.13747C4 7.13478 4 7.1321 4 7.12942C4 7.12674 4 7.12406 4 7.12137C4 7.11869 4 7.11601 4 7.11333C4 7.11064 4 7.10796 4 7.10528C4 7.10259 4 7.09991 4 7.09722C4 7.09454 4 7.09185 4 7.08917C4 7.08648 4 7.0838 4 7.08111C4 7.07843 4 7.07574 4 7.07306C4 7.07037 4 7.06768 4 7.065C4 7.06231 4 7.05962 4 7.05694C4 7.05425 4 7.05156 4 7.04887C4 7.04619 4 7.0435 4 7.04081C4 7.03812 4 7.03543 4 7.03274C4 7.03005 4 7.02736 4 7.02467C4 7.02199 4 7.0193 4 7.01661C4 7.01392 4 7.01123 4 7.00853C4 7.00584 4 7.00315 4 7.00046H2C2 7.00315 2 7.00584 2 7.00853C2 7.01123 2 7.01392 2 7.01661C2 7.0193 2 7.02199 2 7.02467C2 7.02736 2 7.03005 2 7.03274C2 7.03543 2 7.03812 2 7.04081C2 7.0435 2 7.04619 2 7.04887C2 7.05156 2 7.05425 2 7.05694C2 7.05962 2 7.06231 2 7.065C2 7.06768 2 7.07037 2 7.07306C2 7.07574 2 7.07843 2 7.08111C2 7.0838 2 7.08648 2 7.08917C2 7.09185 2 7.09454 2 7.09722C2 7.09991 2 7.10259 2 7.10528C2 7.10796 2 7.11064 2 7.11333C2 7.11601 2 7.11869 2 7.12137C2 7.12406 2 7.12674 2 7.12942C2 7.1321 2 7.13478 2 7.13747C2 7.14015 2 7.14283 2 7.14551C2 7.14819 2 7.15087 2 7.15355C2 7.15623 2 7.15891 2 7.16159C2 7.16427 2 7.16695 2 7.16962C2 7.1723 2 7.17498 2 7.17766C2 7.18034 2 7.18302 2 7.18569C2 7.18837 2 7.19105 2 7.19372C2 7.1964 2 7.19908 2 7.20175C2 7.20443 2 7.2071 2 7.20978C2 7.21245 2 7.21513 2 7.2178C2 7.22048 2 7.22315 2 7.22583C2 7.2285 2 7.23117 2 7.23385C2 7.23652 2 7.23919 2 7.24187C2 7.24454 2 7.24721 2 7.24988C2 7.25255 2 7.25523 2 7.2579C2 7.26057 2 7.26324 2 7.26591C2 7.26858 2 7.27125 2 7.27392C2 7.27659 2 7.27926 2 7.28193C2 7.2846 2 7.28726 2 7.28993C2 7.2926 2 7.29527 2 7.29793C2 7.3006 2 7.30327 2 7.30594C2 7.3086 2 7.31127 2 7.31393C2 7.3166 2 7.31927 2 7.32193C2 7.3246 2 7.32726 2 7.32993C2 7.33259 2 7.33525 2 7.33792C2 7.34058 2 7.34324 2 7.34591C2 7.34857 2 7.35123 2 7.35389C2 7.35656 2 7.35922 2 7.36188C2 7.36454 2 7.3672 2 7.36986C2 7.37252 2 7.37518 2 7.37784C2 7.3805 2 7.38316 2 7.38582C2 7.38848 2 7.39113 2 7.39379C2 7.39645 2 7.39911 2 7.40177C2 7.40442 2 7.40708 2 7.40974C2 7.41239 2 7.41505 2 7.4177C2 7.42036 2 7.42301 2 7.42567C2 7.42832 2 7.43098 2 7.43363C2 7.43628 2 7.43894 2 7.44159C2 7.44424 2 7.4469 2 7.44955C2 7.4522 2 7.45485 2 7.4575C2 7.46015 2 7.4628 2 7.46546C2 7.46811 2 7.47076 2 7.4734C2 7.47605 2 7.4787 2 7.48135C2 7.484 2 7.48665 2 7.4893C2 7.49194 2 7.49459 2 7.49724C2 7.49988 2 7.50253 2 7.50518C2 7.50782 2 7.51047 2 7.51311C2 7.51576 2 7.5184 2 7.52105C2 7.52369 2 7.52633 2 7.52898C2 7.53162 2 7.53426 2 7.53691C2 7.53955 2 7.54219 2 7.54483C2 7.54747 2 7.55011 2 7.55275C2 7.55539 2 7.55803 2 7.56067C2 7.56331 2 7.56595 2 7.56859C2 7.57123 2 7.57387 2 7.5765C2 7.57914 2 7.58178 2 7.58441C2 7.58705 2 7.58969 2 7.59232C2 7.59496 2 7.59759 2 7.60023C2 7.60286 2 7.6055 2 7.60813C2 7.61076 2 7.6134 2 7.61603C2 7.61866 2 7.6213 2 7.62393C2 7.62656 2 7.62919 2 7.63182C2 7.63445 2 7.63708 2 7.63971C2 7.64234 2 7.64497 2 7.6476C2 7.65023 2 7.65286 2 7.65548C2 7.65811 2 7.66074 2 7.66336C2 7.66599 2 7.66862 2 7.67124C2 7.67387 2 7.67649 2 7.67912C2 7.68174 2 7.68437 2 7.68699C2 7.68961 2 7.69224 2 7.69486C2 7.69748 2 7.7001 2 7.70273C2 7.70535 2 7.70797 2 7.71059C2 7.71321 2 7.71583 2 7.71845C2 7.72107 2 7.72369 2 7.72631C2 7.72892 2 7.73154 2 7.73416C2 7.73678 2 7.73939 2 7.74201C2 7.74463 2 7.74724 2 7.74986C2 7.75247 2 7.75509 2 7.7577C2 7.76031 2 7.76293 2 7.76554C2 7.76815 2 7.77077 2 7.77338C2 7.77599 2 7.7786 2 7.78121C2 7.78382 2 7.78643 2 7.78904C2 7.79165 2 7.79426 2 7.79687C2 7.79948 2 7.80209 2 7.80469C2 7.8073 2 7.80991 2 7.81251C2 7.81512 2 7.81773 2 7.82033C2 7.82294 2 7.82554 2 7.82814C2 7.83075 2 7.83335 2 7.83596C2 7.83856 2 7.84116 2 7.84376C2 7.84636 2 7.84896 2 7.85157C2 7.85417 2 7.85677 2 7.85936C2 7.86196 2 7.86456 2 7.86716C2 7.86976 2 7.87236 2 7.87495C2 7.87755 2 7.88015 2 7.88274C2 7.88534 2 7.88794 2 7.89053C2 7.89312 2 7.89572 2 7.89831C2 7.90091 2 7.9035 2 7.90609C2 7.90868 2 7.91127 2 7.91387C2 7.91646 2 7.91905 2 7.92164C2 7.92423 2 7.92682 2 7.92941C2 7.93199 2 7.93458 2 7.93717C2 7.93976 2 7.94234 2 7.94493C2 7.94752 2 7.9501 2 7.95269C2 7.95527 2 7.95786 2 7.96044C2 7.96302 2 7.96561 2 7.96819C2 7.97077 2 7.97335 2 7.97594C2 7.97852 2 7.9811 2 7.98368C2 7.98626 2 7.98884 2 7.99142C2 7.99399 2 7.99657 2 7.99915C2 8.00173 2 8.0043 2 8.00688C2 8.00946 2 8.01203 2 8.01461C2 8.01718 2 8.01976 2 8.02233C2 8.0249 2 8.02748 2 8.03005C2 8.03262 2 8.03519 2 8.03777C2 8.04034 2 8.04291 2 8.04548C2 8.04805 2 8.05061 2 8.05318C2 8.05575 2 8.05832 2 8.06089C2 8.06345 2 8.06602 2 8.06859C2 8.07115 2 8.07372 2 8.07628C2 8.07885 2 8.08141 2 8.08397C2 8.08654 2 8.0891 2 8.09166C2 8.09422 2 8.09678 2 8.09935C2 8.10191 2 8.10447 2 8.10702C2 8.10958 2 8.11214 2 8.1147C2 8.11726 2 8.11982 2 8.12237C2 8.12493 2 8.12748 2 8.13004C2 8.13259 2 8.13515 2 8.1377C2 8.14026 2 8.14281 2 8.14536C2 8.14791 2 8.15047 2 8.15302C2 8.15557 2 8.15812 2 8.16067C2 8.16322 2 8.16577 2 8.16831C2 8.17086 2 8.17341 2 8.17596C2 8.1785 2 8.18105 2 8.18359C2 8.18614 2 8.18868 2 8.19123C2 8.19377 2 8.19632 2 8.19886C2 8.2014 2 8.20394 2 8.20648C2 8.20903 2 8.21157 2 8.21411C2 8.21665 2 8.21918 2 8.22172C2 8.22426 2 8.2268 2 8.22934C2 8.23187 2 8.23441 2 8.23694C2 8.23948 2 8.24201 2 8.24455C2 8.24708 2 8.24961 2 8.25215C2 8.25468 2 8.25721 2 8.25974C2 8.26227 2 8.2648 2 8.26733C2 8.26986 2 8.27239 2 8.27492C2 8.27745 2 8.27998 2 8.2825C2 8.28503 2 8.28755 2 8.29008C2 8.2926 2 8.29513 2 8.29765C2 8.30018 2 8.3027 2 8.30522C2 8.30774 2 8.31026 2 8.31279C2 8.31531 2 8.31783 2 8.32034C2 8.32286 2 8.32538 2 8.3279C2 8.33042 2 8.33293 2 8.33545C2 8.33797 2 8.34048 2 8.343C2 8.34551 2 8.34802 2 8.35054C2 8.35305 2 8.35556 2 8.35807C2 8.36059 2 8.3631 2 8.36561C2 8.36812 2 8.37063 2 8.37313C2 8.37564 2 8.37815 2 8.38066C2 8.38316 2 8.38567 2 8.38818C2 8.39068 2 8.39319 2 8.39569C2 8.39819 2 8.4007 2 8.4032C2 8.4057 2 8.4082 2 8.4107C2 8.4132 2 8.4157 2 8.4182C2 8.4207 2 8.4232 2 8.4257C2 8.42819 2 8.43069 2 8.43319C2 8.43568 2 8.43818 2 8.44067C2 8.44316 2 8.44566 2 8.44815C2 8.45064 2 8.45313 2 8.45563C2 8.45812 2 8.46061 2 8.4631C2 8.46559 2 8.46807 2 8.47056C2 8.47305 2 8.47554 2 8.47802C2 8.48051 2 8.48299 2 8.48548C2 8.48796 2 8.49045 2 8.49293C2 8.49541 2 8.49789 2 8.50037C2 8.50286 2 8.50534 2 8.50782C2 8.51029 2 8.51277 2 8.51525C2 8.51773 2 8.52021 2 8.52268C2 8.52516 2 8.52763 2 8.53011C2 8.53258 2 8.53506 2 8.53753C2 8.54 2 8.54247 2 8.54495C2 8.54742 2 8.54989 2 8.55236C2 8.55483 2 8.55729 2 8.55976C2 8.56223 2 8.5647 2 8.56716C2 8.56963 2 8.57209 2 8.57456C2 8.57702 2 8.57949 2 8.58195C2 8.58441 2 8.58687 2 8.58933C2 8.59179 2 8.59425 2 8.59671C2 8.59917 2 8.60163 2 8.60409C2 8.60655 2 8.609 2 8.61146C2 8.61391 2 8.61637 2 8.61882C2 8.62128 2 8.62373 2 8.62618C2 8.62863 2 8.63109 2 8.63354C2 8.63599 2 8.63844 2 8.64089C2 8.64333 2 8.64578 2 8.64823C2 8.65068 2 8.65312 2 8.65557C2 8.65801 2 8.66046 2 8.6629C2 8.66534 2 8.66779 2 8.67023C2 8.67267 2 8.67511 2 8.67755C2 8.67999 2 8.68243 2 8.68487C2 8.6873 2 8.68974 2 8.69218C2 8.69461 2 8.69705 2 8.69948C2 8.70192 2 8.70435 2 8.70678C2 8.70922 2 8.71165 2 8.71408C2 8.71651 2 8.71894 2 8.72137C2 8.7238 2 8.72623 2 8.72865C2 8.73108 2 8.73351 2 8.73593C2 8.73836 2 8.74078 2 8.74321C2 8.74563 2 8.74805 2 8.75047C2 8.75289 2 8.75532 2 8.75773C2 8.76015 2 8.76257 2 8.76499C2 8.76741 2 8.76983 2 8.77224C2 8.77466 2 8.77707 2 8.77949C2 8.7819 2 8.78432 2 8.78673C2 8.78914 2 8.79155 2 8.79396C2 8.79637 2 8.79878 2 8.80119C2 8.8036 2 8.80601 2 8.80841C2 8.81082 2 8.81323 2 8.81563C2 8.81803 2 8.82044 2 8.82284C2 8.82524 2 8.82765 2 8.83005C2 8.83245 2 8.83485 2 8.83725C2 8.83965 2 8.84204 2 8.84444C2 8.84684 2 8.84923 2 8.85163C2 8.85402 2 8.85642 2 8.85881C2 8.86121 2 8.8636 2 8.86599C2 8.86838 2 8.87077 2 8.87316C2 8.87555 2 8.87794 2 8.88032C2 8.88271 2 8.8851 2 8.88748C2 8.88987 2 8.89225 2 8.89464C2 8.89702 2 8.8994 2 8.90178C2 8.90417 2 8.90655 2 8.90893C2 8.91131 2 8.91368 2 8.91606C2 8.91844 2 8.92082 2 8.92319C2 8.92557 2 8.92794 2 8.93032C2 8.93269 2 8.93506 2 8.93743C2 8.9398 2 8.94218 2 8.94454C2 8.94691 2 8.94928 2 8.95165C2 8.95402 2 8.95638 2 8.95875C2 8.96112 2 8.96348 2 8.96584C2 8.96821 2 8.97057 2 8.97293C2 8.97529 2 8.97765 2 8.98001C2 8.98237 2 8.98473 2 8.98709C2 8.98945 2 8.9918 2 8.99416C2 8.99651 2 8.99887 2 9.00122C2 9.00357 2 9.00593 2 9.00828C2 9.01063 2 9.01298 2 9.01533C2 9.01768 2 9.02003 2 9.02237C2 9.02472 2 9.02707 2 9.02941C2 9.03176 2 9.0341 2 9.03644C2 9.03879 2 9.04113 2 9.04347C2 9.04581 2 9.04815 2 9.05049C2 9.05283 2 9.05517 2 9.0575C2 9.05984 2 9.06217 2 9.06451C2 9.06684 2 9.06918 2 9.07151C2 9.07384 2 9.07617 2 9.0785C2 9.08083 2 9.08316 2 9.08549C2 9.08782 2 9.09015 2 9.09247C2 9.0948 2 9.09713 2 9.09945C2 9.10177 2 9.1041 2 9.10642C2 9.10874 2 9.11106 2 9.11338C2 9.1157 2 9.11802 2 9.12034C2 9.12265 2 9.12497 2 9.12729C2 9.1296 2 9.13192 2 9.13423C2 9.13654 2 9.13885 2 9.14117C2 9.14348 2 9.14579 2 9.1481C2 9.1504 2 9.15271 2 9.15502C2 9.15733 2 9.15963 2 9.16194C2 9.16424 2 9.16654 2 9.16885C2 9.17115 2 9.17345 2 9.17575C2 9.17805 2 9.18035 2 9.18265C2 9.18495 2 9.18724 2 9.18954C2 9.19183 2 9.19413 2 9.19642C2 9.19872 2 9.20101 2 9.2033C2 9.20559 2 9.20788 2 9.21017C2 9.21246 2 9.21475 2 9.21703C2 9.21932 2 9.22161 2 9.22389C2 9.22618 2 9.22846 2 9.23074C2 9.23302 2 9.23531 2 9.23759C2 9.23987 2 9.24215 2 9.24442C2 9.2467 2 9.24898 2 9.25125C2 9.25353 2 9.2558 2 9.25808C2 9.26035 2 9.26262 2 9.26489C2 9.26717 2 9.26944 2 9.2717C2 9.27397 2 9.27624 2 9.27851C2 9.28077 2 9.28304 2 9.2853C2 9.28757 2 9.28983 2 9.29209C2 9.29436 2 9.29662 2 9.29888C2 9.30114 2 9.30339 2 9.30565C2 9.30791 2 9.31017 2 9.31242C2 9.31468 2 9.31693 2 9.31918C2 9.32143 2 9.32369 2 9.32594C2 9.32819 2 9.33044 2 9.33268C2 9.33493 2 9.33718 2 9.33943C2 9.34167 2 9.34392 2 9.34616C2 9.3484 2 9.35065 2 9.35289C2 9.35513 2 9.35737 2 9.35961C2 9.36184 2 9.36408 2 9.36632C2 9.36855 2 9.37079 2 9.37302C2 9.37526 2 9.37749 2 9.37972C2 9.38195 2 9.38418 2 9.38641C2 9.38864 2 9.39087 2 9.3931C2 9.39532 2 9.39755 2 9.39977C2 9.402 2 9.40422 2 9.40644C2 9.40867 2 9.41089 2 9.41311C2 9.41533 2 9.41755 2 9.41976C2 9.42198 2 9.4242 2 9.42641C2 9.42863 2 9.43084 2 9.43305C2 9.43526 2 9.43748 2 9.43969C2 9.4419 2 9.44411 2 9.44631C2 9.44852 2 9.45073 2 9.45293C2 9.45514 2 9.45734 2 9.45954C2 9.46175 2 9.46395 2 9.46615C2 9.46835 2 9.47055 2 9.47274C2 9.47494 2 9.47714 2 9.47933C2 9.48153 2 9.48372 2 9.48592C2 9.48811 2 9.4903 2 9.49249C2 9.49468 2 9.49687 2 9.49906C2 9.50125 2 9.50344 2 9.50562C2 9.50781 2 9.50999 2 9.51217C2 9.51436 2 9.51654 2 9.51872C2 9.5209 2 9.52308 2 9.52526C2 9.52743 2 9.52961 2 9.53179C2 9.53396 2 9.53614 2 9.53831C2 9.54048 2 9.54265 2 9.54483C2 9.547 2 9.54916 2 9.55133C2 9.5535 2 9.55567 2 9.55783C2 9.56 2 9.56216 2 9.56433C2 9.56649 2 9.56865 2 9.57081C2 9.57297 2 9.57513 2 9.57729C2 9.57945 2 9.5816 2 9.58376C2 9.58591 2 9.58807 2 9.59022C2 9.59237 2 9.59452 2 9.59667C2 9.59882 2 9.60097 2 9.60312C2 9.60527 2 9.60742 2 9.60956C2 9.6117 2 9.61385 2 9.61599C2 9.61813 2 9.62027 2 9.62241C2 9.62455 2 9.62669 2 9.62883C2 9.63097 2 9.6331 2 9.63524C2 9.63737 2 9.63951 2 9.64164C2 9.64377 2 9.6459 2 9.64803C2 9.65016 2 9.65229 2 9.65442C2 9.65654 2 9.65867 2 9.66079C2 9.66292 2 9.66504 2 9.66716C2 9.66928 2 9.6714 2 9.67352C2 9.67564 2 9.67776 2 9.67987C2 9.68199 2 9.68411 2 9.68622C2 9.68833 2 9.69045 2 9.69256C2 9.69467 2 9.69678 2 9.69889C2 9.70099 2 9.7031 2 9.70521C2 9.70731 2 9.70942 2 9.71152C2 9.71362 2 9.71573 2 9.71783C2 9.71993 2 9.72203 2 9.72412C2 9.72622 2 9.72832 2 9.73041C2 9.73251 2 9.7346 2 9.73669C2 9.73879 2 9.74088 2 9.74297C2 9.74506 2 9.74714 2 9.74923C2 9.75132 2 9.7534 2 9.75549C2 9.75757 2 9.75966 2 9.76174C2 9.76382 2 9.7659 2 9.76798C2 9.77006 2 9.77213 2 9.77421C2 9.77629 2 9.77836 2 9.78043C2 9.78251 2 9.78458 2 9.78665C2 9.78872 2 9.79079 2 9.79286C2 9.79493 2 9.79699 2 9.79906C2 9.80112 2 9.80319 2 9.80525C2 9.80731 2 9.80937 2 9.81143C2 9.81349 2 9.81555 2 9.81761C2 9.81966 2 9.82172 2 9.82377C2 9.82583 2 9.82788 2 9.82993C2 9.83198 2 9.83403 2 9.83608C2 9.83813 2 9.84018 2 9.84222C2 9.84427 2 9.84631 2 9.84836C2 9.8504 2 9.85244 2 9.85448C2 9.85652 2 9.85856 2 9.8606C2 9.86263 2 9.86467 2 9.8667C2 9.86874 2 9.87077 2 9.8728C2 9.87484 2 9.87687 2 9.87889C2 9.88092 2 9.88295 2 9.88498C2 9.887 2 9.88903 2 9.89105C2 9.89307 2 9.8951 2 9.89712C2 9.89914 2 9.90116 2 9.90317C2 9.90519 2 9.90721 2 9.90922C2 9.91124 2 9.91325 2 9.91526C2 9.91727 2 9.91928 2 9.92129C2 9.9233 2 9.92531 2 9.92732C2 9.92932 2 9.93133 2 9.93333C2 9.93533 2 9.93734 2 9.93933C2 9.94134 2 9.94333 2 9.94533C2 9.94733 2 9.94933 2 9.95132C2 9.95331 2 9.95531 2 9.9573C2 9.95929 2 9.96128 2 9.96327C2 9.96526 2 9.96725 2 9.96923C2 9.97122 2 9.9732 2 9.97519C2 9.97717 2 9.97915 2 9.98113C2 9.98311 2 9.98509 2 9.98707C2 9.98904 2 9.99102 2 9.99299C2 9.99497 2 9.99694 2 9.99891C2 10.0009 2 10.0029 2 10.0048C2 10.0068 2 10.0088 2 10.0107C2 10.0127 2 10.0146 2 10.0166C2 10.0186 2 10.0205 2 10.0225C2 10.0245 2 10.0264 2 10.0284C2 10.0303 2 10.0323 2 10.0342C2 10.0362 2 10.0381 2 10.0401C2 10.042 2 10.044 2 10.0459C2 10.0479 2 10.0498 2 10.0518C2 10.0537 2 10.0557 2 10.0576C2 10.0595 2 10.0615 2 10.0634C2 10.0654 2 10.0673 2 10.0692C2 10.0712 2 10.0731 2 10.075C2 10.077 2 10.0789 2 10.0808C2 10.0828 2 10.0847 2 10.0866C2 10.0885 2 10.0905 2 10.0924C2 10.0943 2 10.0962 2 10.0982C2 10.1001 2 10.102 2 10.1039C2 10.1058 2 10.1077 2 10.1097C2 10.1116 2 10.1135 2 10.1154C2 10.1173 2 10.1192 2 10.1211C2 10.123 2 10.1249 2 10.1268C2 10.1287 2 10.1307 2 10.1326C2 10.1345 2 10.1364 2 10.1383C2 10.1402 2 10.1421 2 10.1439C2 10.1458 2 10.1477 2 10.1496C2 10.1515 2 10.1534 2 10.1553C2 10.1572 2 10.1591 2 10.161C2 10.1629 2 10.1647 2 10.1666C2 10.1685 2 10.1704 2 10.1723C2 10.1742 2 10.176 2 10.1779C2 10.1798 2 10.1817 2 10.1835C2 10.1854 2 10.1873 2 10.1892C2 10.191 2 10.1929 2 10.1948C2 10.1966 2 10.1985 2 10.2004C2 10.2022 2 10.2041 2 10.2059C2 10.2078 2 10.2097 2 10.2115C2 10.2134 2 10.2152 2 10.2171C2 10.219 2 10.2208 2 10.2227C2 10.2245 2 10.2264 2 10.2282C2 10.2301 2 10.2319 2 10.2338C2 10.2356 2 10.2374 2 10.2393C2 10.2411 2 10.243 2 10.2448C2 10.2466 2 10.2485 2 10.2503C2 10.2522 2 10.254 2 10.2558C2 10.2577 2 10.2595 2 10.2613C2 10.2631 2 10.265 2 10.2668C2 10.2686 2 10.2705 2 10.2723C2 10.2741 2 10.2759 2 10.2777C2 10.2796 2 10.2814 2 10.2832C2 10.285 2 10.2868 2 10.2886C2 10.2905 2 10.2923 2 10.2941C2 10.2959 2 10.2977 2 10.2995C2 10.3013 2 10.3031 2 10.3049C2 10.3067 2 10.3085 2 10.3103C2 10.3121 2 10.3139 2 10.3157C2 10.3175 2 10.3193 2 10.3211C2 10.3229 2 10.3247 2 10.3265C2 10.3283 2 10.3301 2 10.3319C2 10.3336 2 10.3354 2 10.3372C2 10.339 2 10.3408 2 10.3426C2 10.3443 2 10.3461 2 10.3479C2 10.3497 2 10.3515 2 10.3532C2 10.355 2 10.3568 2 10.3585C2 10.3603 2 10.3621 2 10.3639C2 10.3656 2 10.3674 2 10.3692C2 10.3709 2 10.3727 2 10.3744C2 10.3762 2 10.378 2 10.3797C2 10.3815 2 10.3832 2 10.385C2 10.3867 2 10.3885 2 10.3902C2 10.392 2 10.3937 2 10.3955C2 10.3972 2 10.399 2 10.4007C2 10.4025 2 10.4042 2 10.406C2 10.4077 2 10.4094 2 10.4112C2 10.4129 2 10.4147 2 10.4164C2 10.4181 2 10.4199 2 10.4216C2 10.4233 2 10.425 2 10.4268C2 10.4285 2 10.4302 2 10.4319C2 10.4337 2 10.4354 2 10.4371C2 10.4388 2 10.4406 2 10.4423C2 10.444 2 10.4457 2 10.4474C2 10.4491 2 10.4508 2 10.4526C2 10.4543 2 10.456 2 10.4577C2 10.4594 2 10.4611 2 10.4628C2 10.4645 2 10.4662 2 10.4679C2 10.4696 2 10.4713 2 10.473C2 10.4747 2 10.4764 2 10.4781C2 10.4798 2 10.4815 2 10.4832C2 10.4848 2 10.4865 2 10.4882C2 10.4899 2 10.4916 2 10.4933C2 10.495 2 10.4966 2 10.4983C2 10.5 2 10.5017 2 10.5034C2 10.505 2 10.5067 2 10.5084C2 10.51 2 10.5117 2 10.5134C2 10.5151 2 10.5167 2 10.5184C2 10.5201 2 10.5217 2 10.5234C2 10.525 2 10.5267 2 10.5284C2 10.53 2 10.5317 2 10.5333L4 10.5333ZM4 7.00046C4 4.23894 6.23868 2 9 2V0C5.13391 0 2 3.13457 2 7.00046H4ZM16 7.00046C16 3.13457 12.8661 0 9 0V2C11.7613 2 14 4.23894 14 7.00046L16 7.00046Z" fill="#4F4F4F"/>
<path fill-rule="evenodd" clip-rule="evenodd" d="M7 16C7 17.1046 7.89543 18 9 18C10.1046 18 11 17.1046 11 16" fill="#4F4F4F"/>
<path d="M7 16C7 17.1046 7.89543 18 9 18C10.1046 18 11 17.1046 11 16" stroke="#4F4F4F" stroke-width="2"/>
</svg>
