<svg width="24" height="24" viewBox="0 0 24 24" fill="none" xmlns="http://www.w3.org/2000/svg">
<path fill-rule="evenodd" clip-rule="evenodd" d="M11.2955 3.04416C9.64661 3.4044 8.51851 4.83879 8.60728 6.46225C8.66685 7.55241 9.22235 8.48481 10.1729 9.09029C10.8102 9.49619 11.627 9.684 12.3655 9.59445C14.0605 9.38892 15.303 8.10335 15.3927 6.46225C15.4528 5.36319 14.9377 4.2891 14.0386 3.63876C13.7363 3.42013 13.2325 3.17805 12.8806 3.08243C12.5507 2.99276 11.6322 2.97058 11.2955 3.04416ZM4.56787 5.48925C4.25284 5.57536 4.06094 5.66846 3.80039 5.86151C2.7811 6.61687 2.6789 8.09846 3.58513 8.98268C4.01252 9.39969 4.51703 9.60556 5.11155 9.60556C6.11894 9.60556 6.97276 8.94269 7.2054 7.98004C7.44928 6.97084 6.84399 5.89374 5.83562 5.54252C5.52462 5.43418 4.86986 5.40668 4.56787 5.48925ZM18.3448 5.48925C18.0297 5.57536 17.8378 5.66846 17.5773 5.86151C16.558 6.61687 16.4558 8.09846 17.362 8.98268C17.7894 9.39969 18.2939 9.60556 18.8885 9.60556C19.8959 9.60556 20.7497 8.94269 20.9823 7.98004C21.2262 6.97084 20.6209 5.89374 19.6125 5.54252C19.3015 5.43418 18.6468 5.40668 18.3448 5.48925ZM11.1585 10.9144C9.99452 11.0793 9.32035 11.3282 8.59468 11.8609C7.79937 12.4446 7.27659 13.146 6.9899 14.0136C6.72192 14.8248 6.65205 15.7089 6.70239 17.6523L6.73749 19.0089L6.84552 19.2243C6.98932 19.511 7.22822 19.7378 7.53816 19.8818L7.79256 20H11.8043C16.047 20 16.1723 19.9953 16.5842 19.8225C16.8151 19.7255 17.023 19.5091 17.1611 19.2217L17.2642 19.0071L17.2757 17.132C17.2883 15.0804 17.2686 14.8022 17.0665 14.1763C16.5479 12.57 15.0944 11.2733 13.4873 10.9834C13.202 10.9319 11.4097 10.8788 11.1585 10.9144ZM3.99609 10.9918C3.14098 11.1925 2.39491 11.874 2.11358 12.7116L2 13.0497V15.5129V17.976L2.0883 18.1372C2.22681 18.3901 2.39761 18.5559 2.63867 18.6714L2.86106 18.778L4.10888 18.7904C4.79515 18.7972 5.39859 18.7926 5.44982 18.78L5.54297 18.7572L5.53569 17.1255C5.5281 15.4283 5.55307 15.0002 5.70023 14.3023C5.90834 13.3156 6.39378 12.3814 7.05906 11.6874L7.23487 11.504L7.14192 11.427C6.97092 11.2853 6.42567 11.0441 6.14873 10.9875C5.77417 10.9111 4.32775 10.9139 3.99609 10.9918ZM17.8345 10.9896C17.5405 11.0518 17.0836 11.2553 16.9025 11.4047L16.7757 11.5093L17.0096 11.7643C17.6765 12.491 18.0989 13.317 18.3003 14.2884C18.4377 14.9507 18.4654 15.4391 18.4614 17.1256L18.4575 18.7573L18.5506 18.7801C18.6017 18.7926 19.1962 18.7973 19.8717 18.7904C21.0288 18.7787 21.1103 18.7732 21.2807 18.6964C21.5288 18.5844 21.7704 18.3623 21.8954 18.1312L22 17.9378V15.4938V13.0497L21.8854 12.7087C21.6027 11.8668 20.851 11.187 19.9843 10.9894C19.6454 10.9121 18.2001 10.9123 17.8345 10.9896Z" fill="#BCBEC0"/>
</svg>
