<svg width="20" height="20" viewBox="0 0 20 20" fill="none" xmlns="http://www.w3.org/2000/svg">
<path fill-rule="evenodd" clip-rule="evenodd" d="M1.05675 0.044185C0.6218 0.183493 0.311389 0.450999 0.121135 0.850498L0 1.10478V3.33547V5.56621L0.128141 5.82636C0.286888 6.14863 0.596164 6.44239 0.910098 6.5691L1.13503 6.6599L4.4227 6.67187C6.78313 6.68051 7.77624 6.6712 7.94391 6.63893C8.57229 6.51793 9.01753 6.0736 9.13804 5.44716C9.16967 5.28293 9.17949 4.60165 9.17076 3.17817C9.15843 1.15552 9.15781 1.14261 9.06759 0.919077C8.94094 0.60533 8.64708 0.296199 8.32462 0.137487L8.06434 0.00940683L4.63883 0.00170009C1.94329 -0.00432447 1.17996 0.00471237 1.05675 0.044185ZM11.915 0.042894C11.4989 0.15607 11.0951 0.516526 10.9317 0.920837L10.8415 1.1439L10.8297 5.68188C10.8211 8.96144 10.8302 10.285 10.8625 10.4546C10.9814 11.0799 11.4275 11.5253 12.0561 11.6464C12.2238 11.6786 13.2169 11.6879 15.5773 11.6793L18.865 11.6673L19.0899 11.5765C19.4039 11.4498 19.7131 11.1561 19.8719 10.8338L20 10.5736V5.83919V1.10478L19.8788 0.850498C19.7213 0.520125 19.4885 0.286146 19.1647 0.132832L18.9041 0.00940683L15.499 0.00185657C12.887 -0.00397239 12.0522 0.00561214 11.915 0.042894ZM1.15636 8.36524C0.71816 8.45111 0.306888 8.78297 0.104892 9.21376L0 9.43746V14.171V18.9046L0.121135 19.1589C0.275029 19.4821 0.51816 19.7251 0.841487 19.8789L1.09589 20H4.58008H8.06427L8.32458 19.8719C8.64701 19.7132 8.9409 19.4042 9.06767 19.0903L9.15851 18.8655L9.17033 14.3275C9.17886 11.048 9.16978 9.72444 9.13753 9.55482C9.02098 8.94196 8.58395 8.49614 7.97264 8.36649C7.72145 8.31325 1.42775 8.31208 1.15636 8.36524ZM11.9765 13.3835C11.3889 13.5283 10.9789 13.9624 10.8621 14.5635C10.8303 14.7275 10.8205 15.4024 10.8292 16.8312C10.8416 18.8539 10.8422 18.8668 10.9324 19.0903C11.0591 19.4041 11.3529 19.7132 11.6754 19.8719L11.9357 20H15.4199H18.9041L19.1647 19.8766C19.4885 19.7233 19.7213 19.4893 19.8788 19.1589L20 18.9046V16.6739V14.4432L19.8719 14.1831C19.7131 13.8608 19.4039 13.567 19.0899 13.4403L18.865 13.3495L15.5186 13.3424C12.979 13.337 12.125 13.347 11.9765 13.3835Z" fill="#BCBEC0"/>
</svg>
