<svg width="21" height="21" viewBox="0 0 21 21" fill="none" xmlns="http://www.w3.org/2000/svg">
<path fill-rule="evenodd" clip-rule="evenodd" d="M11.56 4.73142V9.44332H16.2722H20.9844L20.9611 8.71106C20.934 7.85993 20.8657 7.36133 20.6772 6.63767C19.8819 3.58505 17.4248 1.11791 14.3917 0.326453C13.7176 0.150595 13.1138 0.0683482 12.3119 0.0431587L11.56 0.0195312V4.73142ZM9.09942 2.4405C7.71078 2.54481 6.29339 3.0313 5.04379 3.83253L4.67907 4.06638L7.52385 6.91108C9.08845 8.47565 10.373 9.75575 10.3784 9.75575C10.3839 9.75575 10.3883 8.10378 10.3883 6.08471V2.41367L9.83175 2.42051C9.52562 2.42426 9.19609 2.43328 9.09942 2.4405ZM3.43318 5.1746C0.579694 8.14236 0.177209 12.5721 2.45101 15.9849C2.77104 16.4653 3.11276 16.9064 3.18232 16.929C3.20384 16.9359 4.64502 15.5181 6.38494 13.7783L9.54847 10.6149L6.65612 7.72281L3.7638 4.83074L3.43318 5.1746ZM7.63935 14.2033C5.48779 16.3547 4.06165 17.8093 4.07794 17.8356C4.12793 17.9165 4.62806 18.2974 5.04543 18.5724C7.13355 19.9485 9.60584 20.3606 12.0127 19.7338C14.4699 19.0938 16.5479 17.3887 17.6761 15.0866C18.2705 13.8738 18.534 12.7878 18.5786 11.3667L18.6022 10.6149H14.9151H11.2279L7.63935 14.2033Z" fill="#BCBEC0"/>
</svg>
