<svg width="183" height="40" viewBox="0 0 183 40" fill="none" xmlns="http://www.w3.org/2000/svg">
<path d="M0 1.29102V35.1644H11.3242V23.772C11.3242 20.6581 13.8323 18.1518 16.9483 18.1518C20.0644 18.1518 22.5724 20.6581 22.5724 23.772V35.1644H33.8966V1.29102H0Z" fill="#4DB663"/>
<path d="M141.667 21.2659L141.211 21.7976C140.679 21.2659 140.071 20.9621 139.387 21.0381C138.627 21.0381 137.943 21.3419 137.563 21.8735C137.107 22.4052 136.879 23.0128 136.879 23.7723C136.879 24.4558 137.107 25.0634 137.563 25.5951C138.019 26.1267 138.627 26.3545 139.387 26.3545C139.767 26.3545 140.147 26.2786 140.527 26.1267C140.907 25.9748 141.211 25.7469 141.439 25.4432L141.971 25.8988C141.667 26.2786 141.287 26.5824 140.831 26.8102C140.375 27.0381 139.919 27.114 139.387 27.114C138.703 27.114 138.095 26.9621 137.563 26.6583C137.031 26.3545 136.651 25.8988 136.423 25.4432C136.195 24.9875 136.043 24.3799 136.043 23.8482C136.043 23.2406 136.195 22.709 136.423 22.2533C136.651 21.7216 137.031 21.3419 137.563 21.0381C138.095 20.7343 138.703 20.5064 139.387 20.5064C140.223 20.2786 140.983 20.5824 141.667 21.2659Z" fill="#2B2B2B"/>
<path d="M146.911 22.785C147.367 23.2407 147.595 23.8483 147.595 24.5319C147.595 25.2154 147.367 25.823 146.911 26.2787C146.455 26.7344 145.923 26.9622 145.163 26.9622C144.478 26.9622 143.87 26.7344 143.414 26.2787C142.958 25.823 142.73 25.2154 142.73 24.5319C142.73 23.8483 142.958 23.2407 143.414 22.785C143.87 22.3293 144.402 22.1015 145.163 22.1015C145.847 22.0255 146.455 22.3293 146.911 22.785ZM143.49 24.5319C143.49 25.1395 143.642 25.5951 143.946 25.8989C144.25 26.2027 144.631 26.3546 145.087 26.3546C145.543 26.3546 145.923 26.2027 146.303 25.8989C146.607 25.5951 146.759 25.1395 146.759 24.5319C146.759 23.9243 146.607 23.5445 146.303 23.2407C145.999 22.9369 145.619 22.785 145.087 22.785C144.631 22.785 144.25 22.9369 143.946 23.2407C143.642 23.4686 143.49 23.9243 143.49 24.5319Z" fill="#2B2B2B"/>
<path d="M149.571 24.8355V26.8102H148.887V22.1013H149.571V24.152H150.331C150.331 23.9241 150.407 23.6963 150.483 23.4684C150.711 23.0127 150.939 22.7089 151.395 22.4051C151.775 22.1773 152.231 22.0254 152.687 22.0254C153.371 22.0254 153.903 22.2532 154.359 22.7089C154.815 23.1646 155.043 23.7722 155.043 24.4558C155.043 24.9115 154.967 25.2912 154.739 25.595C154.587 25.9748 154.283 26.2786 153.903 26.5064C153.523 26.7342 153.067 26.8861 152.611 26.8861C151.851 26.8861 151.243 26.5824 150.787 26.0507C150.483 25.671 150.331 25.2912 150.255 24.8355H149.571ZM151.015 24.5317C151.015 24.9874 151.167 25.3672 151.395 25.671C151.547 25.8229 151.775 25.9748 152.003 26.1267C152.231 26.2786 152.459 26.2786 152.687 26.2786C152.991 26.2786 153.295 26.2026 153.599 26.0507C153.827 25.8988 154.055 25.671 154.131 25.4431C154.283 25.2153 154.359 24.9115 154.359 24.6077C154.359 24.076 154.207 23.6963 153.903 23.3165C153.599 23.0127 153.219 22.8608 152.763 22.8608C152.459 22.8608 152.155 22.9368 151.851 23.1646C151.547 23.3165 151.319 23.6203 151.167 24.0001C151.015 24.076 151.015 24.3039 151.015 24.5317Z" fill="#2B2B2B"/>
<path d="M159.225 23.3923C159.225 23.6201 159.149 23.772 159.073 23.9999C158.921 24.2277 158.769 24.3037 158.541 24.3796C158.769 24.4555 158.997 24.6074 159.149 24.8353C159.301 25.0631 159.377 25.215 159.377 25.4429C159.377 25.9745 159.225 26.3543 158.845 26.5821C158.465 26.81 158.085 26.9619 157.553 26.9619C156.945 26.9619 156.413 26.734 155.805 26.2783L156.185 25.7467C156.413 25.9745 156.641 26.1264 157.021 26.2024C157.401 26.2783 157.781 26.2783 158.085 26.2024C158.389 26.0505 158.617 25.8226 158.617 25.4429C158.617 24.9112 158.161 24.6834 157.249 24.6834H156.793V24.0758H157.249C157.629 24.0758 157.933 23.9999 158.161 23.9239C158.389 23.848 158.465 23.6201 158.465 23.3163C158.465 23.0885 158.389 22.9366 158.161 22.7847C157.933 22.6328 157.705 22.6328 157.477 22.6328C156.945 22.6328 156.565 22.7847 156.337 23.0125L155.957 22.5568C156.413 22.1771 156.945 21.9492 157.477 21.9492C157.933 21.9492 158.313 22.1011 158.693 22.253C158.997 22.6328 159.225 22.9366 159.225 23.3923Z" fill="#2B2B2B"/>
<path d="M104.656 23.4682V21.2656H108.912V31.0631L117.12 21.2656H120.617V23.4682H118.869V33.1137H120.617V35.3163H116.36V25.8985L108.38 35.3163H106.404V23.4682H104.656Z" fill="#2B2B2B"/>
<path d="M76.7595 20.9619C73.0354 20.9619 69.9953 23.6961 69.5393 27.2657H66.9553V23.3923V21.1898H62.6992V23.3923H64.4472V33.0379H62.6992V35.2404H66.9553V33.0379V29.4682H69.6153C70.2234 32.886 73.1874 35.5442 76.8355 35.5442C80.8635 35.5442 84.1316 32.2784 84.1316 28.2531C84.1316 24.2277 80.8635 20.9619 76.7595 20.9619ZM76.8355 33.2657C74.0994 33.2657 72.0474 30.9872 72.0474 28.2531C72.0474 25.5189 74.0994 23.2404 76.8355 23.2404C79.5715 23.2404 81.6236 25.5189 81.6236 28.2531C81.6236 31.0632 79.5715 33.2657 76.8355 33.2657Z" fill="#2B2B2B"/>
<path d="M97.5078 3.49355H99.3319V13.1391H97.5078V15.3416H109.516V11.0125H107.236V13.0632H101.764V9.1138H106.552V6.83532H101.764V3.5695H109.516V1.29102H97.5078V3.49355Z" fill="#2B2B2B"/>
<path d="M137.639 6.83532H130.647V1.29102H126.391V3.49355H128.139V13.1391H126.391V15.3416H130.647V9.03785H137.639V15.3416H141.895V13.1391H140.071V3.49355H141.895V1.29102H137.639V6.83532Z" fill="#2B2B2B"/>
<path d="M159.906 3.49355V13.1391V15.3416H164.162V13.1391H162.414V3.49355H164.162V1.29102H159.906V3.49355Z" fill="#2B2B2B"/>
<path d="M150.939 6.83554H148.811V1.36719H144.555V3.56972H146.303V13.1393H144.555V15.3419H151.243C155.043 15.3419 157.019 13.9748 157.019 11.0887C157.019 8.05073 154.891 6.83554 150.939 6.83554ZM151.243 13.0634H148.887V9.11402H151.243C153.143 9.11402 154.663 9.41782 154.663 11.0887C154.587 12.6077 153.143 13.0634 151.243 13.0634Z" fill="#2B2B2B"/>
<path d="M179.288 3.5695V1.29102H167.355V3.49355H169.103V13.1391H167.355V15.3416H179.288V11.0125H177.084V13.0632H171.612V9.1138H176.324V6.83532H171.612V3.5695H179.288Z" fill="#2B2B2B"/>
<path d="M121.603 8.05037C122.591 7.36683 123.275 6.37949 123.275 5.08835C123.275 2.65797 121.679 0.911133 117.271 0.911133C114.763 0.911133 112.787 1.67063 112.787 1.67063V3.87316V5.54404H114.991V3.56936C114.991 3.56936 116.055 3.18961 117.651 3.18961C119.247 3.18961 120.843 3.79721 120.843 5.08835C120.843 6.30354 119.323 6.83519 118.487 6.83519H117.651C117.575 6.83519 117.575 6.83519 117.499 6.83519H116.207V9.11367H117.727C119.627 9.11367 120.919 9.72126 120.919 11.0124C120.919 12.5314 119.475 13.4428 117.575 13.4428C114.991 13.4428 112.711 12.3035 112.711 12.3035V14.658C112.711 14.658 114.687 15.7972 117.499 15.7972C121.983 15.7972 123.275 13.9744 123.275 11.0883C123.427 9.72126 122.667 8.73392 121.603 8.05037Z" fill="#2B2B2B"/>
<path d="M70.9849 15.6448C75.013 15.6448 78.2811 12.379 78.2811 8.35364C78.2811 4.32832 75.013 1.0625 70.9849 1.0625C66.9569 1.0625 63.6888 4.32832 63.6888 8.35364C63.6128 12.379 66.8809 15.6448 70.9849 15.6448ZM70.9849 3.34098C73.721 3.34098 75.773 5.61946 75.773 8.35364C75.773 11.0878 73.721 13.3663 70.9849 13.3663C68.2489 13.3663 66.1968 11.0878 66.1968 8.35364C66.1968 5.61946 68.2489 3.34098 70.9849 3.34098Z" fill="#2B2B2B"/>
<path d="M45.3711 3.49355H47.1191V13.1391H45.3711V15.3416H49.6272V3.5695H56.6193V15.3416H60.7994V13.1391H59.0513V3.49355H60.7994V1.29102H45.3711V3.49355Z" fill="#2B2B2B"/>
<path d="M85.1227 10.3292C85.7307 8.50643 86.3387 5.24061 86.6427 3.56972H90.5188V13.1393V14.0507V15.3419H94.7748V13.1393H93.0268V3.56972V3.49377V2.05073V1.36719H85.0467H82.3106V3.56972H84.2106C83.9066 5.24061 83.3746 8.12668 82.8426 9.72162C82.0826 12.152 80.7146 13.2912 79.7266 13.8229L80.8666 16.0254C82.1586 15.114 84.0586 13.595 85.1227 10.3292Z" fill="#2B2B2B"/>
<path d="M57.9135 23.5443V23.4684V22.0253V21.3418H49.9334H47.1973V23.5443H49.0974C48.7934 25.2152 48.2613 28.1013 47.7293 29.6962C46.9693 32.1266 45.6013 33.2658 44.6133 33.7975L45.7533 36C47.1213 35.3165 49.0214 33.7215 50.0854 30.5317C50.6934 28.7089 51.3014 25.4431 51.6054 23.7722H55.4815V33.3418V34.2532V35.5443H59.7376V33.3418H57.9895V23.5443H57.9135Z" fill="#2B2B2B"/>
<path d="M99.5628 23.5443V23.4684V22.0253V21.3418H91.5826H88.8466V23.5443H90.7466C90.4426 25.2152 89.9106 28.1013 89.3786 29.6962C88.8466 31.3671 88.0106 32.4304 87.2506 33.114H84.8945V35.3924H88.0106H89.6826H97.1307H98.8788V39.7215H101.387V35.3165V33.038H99.6388V23.5443H99.5628ZM90.0626 32.962C90.8226 32.2026 91.4306 31.1393 91.8106 30.076C92.4187 28.2532 92.9507 25.1393 93.2547 23.4684H97.1307V32.8861H90.0626V32.962Z" fill="#2B2B2B"/>
<path d="M138.019 30.6074C138.779 30.6074 139.311 30.7593 139.767 31.215C140.147 31.6707 140.375 32.2783 140.375 33.0378C140.375 33.7213 140.147 34.3289 139.691 34.7846C139.235 35.2403 138.703 35.4682 138.095 35.4682C137.639 35.4682 137.259 35.3922 136.879 35.1644V37.215H136.195V30.6074H136.727L136.803 31.0631C136.955 30.9112 137.107 30.7593 137.259 30.6834C137.639 30.6074 137.791 30.6074 138.019 30.6074ZM138.171 34.7846C138.627 34.7087 139.007 34.5568 139.311 34.253C139.539 33.9492 139.691 33.4935 139.691 33.0378C139.691 32.5062 139.539 32.0505 139.235 31.7467C138.931 31.4429 138.551 31.291 138.095 31.291C137.715 31.291 137.335 31.4429 136.955 31.8226V34.4049C137.259 34.6327 137.715 34.7846 138.171 34.7846Z" fill="#2B2B2B"/>
<path d="M145.012 31.7467L142.428 35.3163H141.82V30.6074H142.504V34.177L145.088 30.6074H145.696V35.3163H145.012V31.7467Z" fill="#2B2B2B"/>
<path d="M148.66 31.215C148.204 31.215 147.824 31.3669 147.368 31.7467L146.988 31.3669C147.52 30.8353 148.052 30.6074 148.66 30.6074C149.344 30.6074 149.876 30.8353 150.332 31.291C150.788 31.7467 151.016 32.3543 151.016 33.0378C151.016 33.7213 150.788 34.253 150.408 34.7087C149.952 35.1644 149.42 35.3922 148.736 35.3922C148.128 35.3922 147.596 35.1644 146.988 34.7087L147.368 34.253C147.824 34.6327 148.204 34.7846 148.66 34.7846C149.116 34.7846 149.496 34.6327 149.8 34.4049C150.104 34.177 150.256 33.7973 150.256 33.3416H147.824V32.734H150.256C150.256 32.3543 150.104 31.9745 149.724 31.6707C149.42 31.3669 149.04 31.215 148.66 31.215Z" fill="#2B2B2B"/>
<path d="M153.219 33.1897C153.219 33.4176 153.219 33.6454 153.219 33.7973C153.219 33.9492 153.143 34.177 153.067 34.3289C152.991 34.5568 152.839 34.7087 152.687 34.8606C152.535 35.0125 152.307 35.1644 152.003 35.3163L151.699 34.8606C151.927 34.7087 152.079 34.6327 152.231 34.4808C152.383 34.3289 152.459 34.177 152.459 33.9492C152.535 33.7213 152.535 33.5695 152.535 33.4935C152.535 33.3416 152.535 33.1897 152.535 32.9619V30.6074H155.879V35.3163H155.119V31.291H153.219V33.1897Z" fill="#2B2B2B"/>
<path d="M157.02 31.215V30.6074H160.744V31.215H159.224V35.3163H158.464V31.215H157.02Z" fill="#2B2B2B"/>
<path d="M165.532 31.2148C165.988 31.6705 166.216 32.2781 166.216 32.9616C166.216 33.6452 165.988 34.2528 165.532 34.7085C165.076 35.1642 164.544 35.392 163.784 35.392C163.1 35.392 162.492 35.1642 162.036 34.7085C161.58 34.2528 161.352 33.6452 161.352 32.9616C161.352 32.2781 161.58 31.6705 162.036 31.2148C162.492 30.7591 163.024 30.5312 163.784 30.5312C164.544 30.5312 165.076 30.7591 165.532 31.2148ZM162.188 32.9616C162.188 33.5692 162.34 34.0249 162.644 34.3287C162.948 34.6325 163.328 34.7844 163.784 34.7844C164.24 34.7844 164.62 34.6325 165 34.3287C165.304 34.0249 165.456 33.5692 165.456 32.9616C165.456 32.354 165.304 31.9743 165 31.6705C164.696 31.3667 164.316 31.2148 163.784 31.2148C163.328 31.2148 162.948 31.3667 162.644 31.6705C162.34 31.9743 162.188 32.43 162.188 32.9616Z" fill="#2B2B2B"/>
<path d="M169.41 30.6074C170.17 30.6074 170.702 30.7593 171.158 31.215C171.538 31.6707 171.766 32.2783 171.766 33.0378C171.766 33.7213 171.538 34.3289 171.082 34.7846C170.626 35.2403 170.094 35.4682 169.486 35.4682C169.03 35.4682 168.65 35.3922 168.27 35.1644V37.215H167.586V30.6074H168.118L168.194 31.0631C168.346 30.9112 168.498 30.7593 168.65 30.6834C168.954 30.6074 169.182 30.6074 169.41 30.6074ZM169.562 34.7846C170.018 34.7087 170.398 34.5568 170.626 34.253C170.854 33.9492 171.006 33.4935 171.006 33.0378C171.006 32.5062 170.854 32.0505 170.55 31.7467C170.246 31.4429 169.866 31.291 169.41 31.291C169.03 31.291 168.65 31.4429 168.27 31.8226V34.4049C168.65 34.6327 169.03 34.7846 169.562 34.7846Z" fill="#2B2B2B"/>
<path d="M176.93 31.2148C177.386 31.6705 177.614 32.2781 177.614 32.9616C177.614 33.6452 177.386 34.2528 176.93 34.7085C176.474 35.1642 175.942 35.392 175.182 35.392C174.498 35.392 173.89 35.1642 173.434 34.7085C172.978 34.2528 172.75 33.6452 172.75 32.9616C172.75 32.2781 172.978 31.6705 173.434 31.2148C173.89 30.7591 174.422 30.5312 175.182 30.5312C175.866 30.5312 176.474 30.7591 176.93 31.2148ZM173.51 32.9616C173.51 33.5692 173.662 34.0249 173.966 34.3287C174.27 34.6325 174.65 34.7844 175.106 34.7844C175.562 34.7844 175.942 34.6325 176.322 34.3287C176.626 34.0249 176.778 33.5692 176.778 32.9616C176.778 32.354 176.626 31.9743 176.322 31.6705C176.018 31.3667 175.638 31.2148 175.106 31.2148C174.65 31.2148 174.27 31.3667 173.966 31.6705C173.662 31.9743 173.51 32.43 173.51 32.9616Z" fill="#2B2B2B"/>
<path d="M179.062 35.3163V30.6074H180.887C181.343 30.6074 181.799 30.6834 182.103 30.9112C182.407 31.1391 182.559 31.4429 182.635 31.8986C182.635 32.1264 182.559 32.3543 182.407 32.5062C182.255 32.734 182.103 32.81 181.875 32.8859C182.103 32.9619 182.331 33.0378 182.559 33.2657C182.711 33.4935 182.863 33.7214 182.863 33.8732C182.863 34.4049 182.711 34.7087 182.331 34.9365C181.951 35.1644 181.571 35.2403 181.039 35.2403H179.062V35.3163ZM180.887 31.215H179.747V32.5821H180.963C181.647 32.5821 181.951 32.3543 181.951 31.8986C181.875 31.4429 181.571 31.215 180.887 31.215ZM180.887 33.1897H179.747V34.7087H180.963C181.267 34.7087 181.571 34.6327 181.799 34.4808C182.027 34.3289 182.103 34.177 182.103 33.8732C182.103 33.5695 181.951 33.4176 181.723 33.2657C181.495 33.1897 181.191 33.1897 180.887 33.1897Z" fill="#2B2B2B"/>
<path d="M128.67 20.9619H127.91V35.2404H128.67V20.9619Z" fill="#2B2B2B"/>
</svg>
